<svg width="33.926" height="9.8" viewBox="0 0 33.926 9.8" xmlns="http://www.w3.org/2000/svg"><g id="svgGroup" stroke-linecap="round" fill-rule="evenodd" font-size="9pt" stroke="#000000" stroke-width="0.25mm" fill="#ffffff" style="stroke:#000000;stroke-width:0.25mm;fill:#ffffff"><path d="M 0 0.132 L 1.704 0.132 A 1.936 1.936 0 0 0 1.639 0.409 A 1.517 1.517 0 0 0 1.621 0.64 A 3.307 3.307 0 0 0 1.632 0.896 Q 1.661 1.261 1.763 1.812 Q 2.358 4.805 2.456 5.269 A 522.985 522.985 0 0 0 2.527 5.601 Q 2.659 6.211 2.701 6.399 A 8.85 8.85 0 0 0 2.708 6.428 A 23.494 23.494 0 0 1 2.773 6.723 A 20.416 20.416 0 0 1 2.793 6.816 Q 3.701 5.737 4.048 3.872 A 7.702 7.702 0 0 0 4.154 3.088 A 6.259 6.259 0 0 0 4.175 2.583 A 25.204 25.204 0 0 0 4.173 2.297 Q 4.17 1.989 4.158 1.771 A 6.137 6.137 0 0 0 4.15 1.646 Q 4.126 1.314 4.067 1.04 A 3.075 3.075 0 0 0 3.939 0.596 Q 3.848 0.358 3.723 0.166 A 1.868 1.868 0 0 0 3.696 0.127 L 5.4 0.127 A 1.873 1.873 0 0 0 5.295 0.658 A 1.761 1.761 0 0 0 5.293 0.713 A 52.8 52.8 0 0 1 5.29 0.878 Q 5.284 1.152 5.274 1.593 A 280.222 280.222 0 0 1 5.273 1.604 A 7.58 7.58 0 0 1 5.245 2.085 Q 5.222 2.352 5.179 2.653 A 15.131 15.131 0 0 1 5.122 3.027 A 12.546 12.546 0 0 1 4.968 3.809 A 9.215 9.215 0 0 1 4.78 4.502 A 8.969 8.969 0 0 1 4.566 5.108 A 6.55 6.55 0 0 1 4.326 5.645 A 9.55 9.55 0 0 1 4.079 6.104 A 6.948 6.948 0 0 1 3.828 6.509 Q 3.605 6.841 3.402 7.087 A 4.909 4.909 0 0 1 3.354 7.144 L 2.974 7.603 L 1.436 7.603 A 1.068 1.068 0 0 0 1.496 7.391 A 0.885 0.885 0 0 0 1.509 7.241 Q 1.509 6.953 1.431 6.397 A 101.126 101.126 0 0 0 1.126 4.477 Q 0.484 0.691 0 0.132 Z M 15.195 7.603 L 13.794 7.603 Q 14.017 6.837 14.019 4.982 A 31.743 31.743 0 0 0 14.019 4.951 Q 14.019 3.613 13.784 3.125 A 1.754 1.754 0 0 0 13.652 2.896 L 13.491 2.671 L 15.186 2.671 A 2.952 2.952 0 0 0 15.119 2.933 A 2.305 2.305 0 0 0 15.088 3.13 L 15.049 3.481 A 2.412 2.412 0 0 1 15.45 3.003 A 1.596 1.596 0 0 1 16.553 2.573 A 1.215 1.215 0 0 1 16.982 2.646 A 1.063 1.063 0 0 1 17.475 3.032 A 1.58 1.58 0 0 1 17.707 3.523 Q 17.769 3.74 17.789 3.999 A 3.286 3.286 0 0 1 17.798 4.248 L 17.798 4.771 A 117.485 117.485 0 0 0 17.799 5.237 Q 17.802 6.095 17.819 6.369 A 2.233 2.233 0 0 0 17.822 6.411 A 80.972 80.972 0 0 0 17.834 6.551 Q 17.845 6.687 17.854 6.784 A 19.02 19.02 0 0 0 17.861 6.865 Q 17.876 7.022 17.896 7.144 A 3.319 3.319 0 0 0 17.998 7.603 L 16.567 7.603 Q 16.79 6.837 16.792 4.982 A 31.743 31.743 0 0 0 16.792 4.951 Q 16.792 4.199 16.697 3.921 Q 16.602 3.643 16.47 3.523 A 0.45 0.45 0 0 0 16.252 3.416 A 0.647 0.647 0 0 0 16.123 3.403 Q 15.728 3.403 15.405 3.716 A 1.637 1.637 0 0 0 15.073 4.177 A 2.053 2.053 0 0 0 14.98 4.399 A 3.656 3.656 0 0 0 14.971 4.638 A 4.059 4.059 0 0 0 14.971 4.673 L 14.971 4.951 A 24.983 24.983 0 0 0 14.985 5.822 Q 15.027 7.024 15.195 7.603 Z M 25.649 7.603 L 24.248 7.603 Q 24.471 6.837 24.473 4.982 A 31.743 31.743 0 0 0 24.473 4.951 Q 24.473 3.613 24.238 3.125 A 1.754 1.754 0 0 0 24.106 2.896 L 23.945 2.671 L 25.64 2.671 A 2.952 2.952 0 0 0 25.573 2.933 A 2.305 2.305 0 0 0 25.542 3.13 L 25.503 3.481 A 2.412 2.412 0 0 1 25.904 3.003 A 1.596 1.596 0 0 1 27.007 2.573 A 1.215 1.215 0 0 1 27.437 2.646 A 1.063 1.063 0 0 1 27.93 3.032 A 1.58 1.58 0 0 1 28.161 3.523 Q 28.223 3.74 28.243 3.999 A 3.286 3.286 0 0 1 28.252 4.248 L 28.252 4.771 A 117.485 117.485 0 0 0 28.253 5.237 Q 28.256 6.095 28.273 6.369 A 2.233 2.233 0 0 0 28.276 6.411 A 80.972 80.972 0 0 0 28.288 6.551 Q 28.299 6.687 28.308 6.784 A 19.02 19.02 0 0 0 28.315 6.865 Q 28.33 7.022 28.35 7.144 A 3.319 3.319 0 0 0 28.452 7.603 L 27.021 7.603 Q 27.244 6.837 27.246 4.982 A 31.743 31.743 0 0 0 27.246 4.951 Q 27.246 4.199 27.151 3.921 Q 27.056 3.643 26.924 3.523 A 0.45 0.45 0 0 0 26.706 3.416 A 0.647 0.647 0 0 0 26.577 3.403 Q 26.182 3.403 25.859 3.716 A 1.637 1.637 0 0 0 25.528 4.177 A 2.053 2.053 0 0 0 25.435 4.399 A 3.656 3.656 0 0 0 25.425 4.638 A 4.059 4.059 0 0 0 25.425 4.673 L 25.425 4.951 A 24.983 24.983 0 0 0 25.439 5.822 Q 25.481 7.024 25.649 7.603 Z M 22.866 4.995 L 22.852 5.933 A 7.509 7.509 0 0 0 22.86 6.312 Q 22.889 6.866 23.006 7.111 A 0.663 0.663 0 0 0 23.013 7.124 A 1.09 1.09 0 0 0 23.098 7.264 Q 23.151 7.339 23.213 7.393 A 0.635 0.635 0 0 0 23.242 7.417 L 23.472 7.603 L 22.056 7.603 L 21.904 7.036 Q 21.353 7.7 20.332 7.7 A 1.405 1.405 0 0 1 19.897 7.636 A 1.151 1.151 0 0 1 19.395 7.31 A 1.209 1.209 0 0 1 19.082 6.48 A 1.702 1.702 0 0 1 19.139 6.032 A 1.399 1.399 0 0 1 19.309 5.645 Q 19.536 5.288 19.907 5.054 Q 20.586 4.633 21.586 4.585 A 5.371 5.371 0 0 1 21.748 4.58 L 21.748 4.526 Q 21.748 3.34 21.382 3.135 A 0.535 0.535 0 0 0 21.247 3.083 Q 21.184 3.068 21.111 3.064 A 1.071 1.071 0 0 0 21.042 3.062 A 0.674 0.674 0 0 0 20.771 3.12 A 0.912 0.912 0 0 0 20.63 3.198 A 1.522 1.522 0 0 0 20.333 3.46 A 1.792 1.792 0 0 0 20.259 3.55 A 2.603 2.603 0 0 0 19.859 4.316 A 3.144 3.144 0 0 0 19.785 4.575 Q 19.351 4.316 19.351 3.584 Q 19.351 3.307 19.418 2.967 A 4.576 4.576 0 0 1 19.429 2.915 A 1.148 1.148 0 0 0 19.738 2.874 A 1.069 1.069 0 0 0 19.78 2.861 L 20.156 2.744 A 3.79 3.79 0 0 1 20.92 2.588 A 3.335 3.335 0 0 1 21.235 2.573 Q 21.763 2.573 22.078 2.73 Q 22.393 2.886 22.568 3.193 Q 22.807 3.613 22.855 4.52 A 9.178 9.178 0 0 1 22.866 4.995 Z M 33.32 4.995 L 33.306 5.933 A 7.509 7.509 0 0 0 33.315 6.312 Q 33.343 6.866 33.461 7.111 A 0.663 0.663 0 0 0 33.467 7.124 A 1.09 1.09 0 0 0 33.552 7.264 Q 33.606 7.339 33.667 7.393 A 0.635 0.635 0 0 0 33.696 7.417 L 33.926 7.603 L 32.51 7.603 L 32.358 7.036 Q 31.807 7.7 30.786 7.7 A 1.405 1.405 0 0 1 30.351 7.636 A 1.151 1.151 0 0 1 29.849 7.31 A 1.209 1.209 0 0 1 29.536 6.48 A 1.702 1.702 0 0 1 29.593 6.032 A 1.399 1.399 0 0 1 29.763 5.645 Q 29.99 5.288 30.361 5.054 Q 31.04 4.633 32.04 4.585 A 5.371 5.371 0 0 1 32.202 4.58 L 32.202 4.526 Q 32.202 3.34 31.836 3.135 A 0.535 0.535 0 0 0 31.701 3.083 Q 31.638 3.068 31.565 3.064 A 1.071 1.071 0 0 0 31.497 3.062 A 0.674 0.674 0 0 0 31.225 3.12 A 0.912 0.912 0 0 0 31.084 3.198 A 1.522 1.522 0 0 0 30.787 3.46 A 1.792 1.792 0 0 0 30.713 3.55 A 2.603 2.603 0 0 0 30.313 4.316 A 3.144 3.144 0 0 0 30.239 4.575 Q 29.805 4.316 29.805 3.584 Q 29.805 3.307 29.872 2.967 A 4.576 4.576 0 0 1 29.883 2.915 A 1.148 1.148 0 0 0 30.193 2.874 A 1.069 1.069 0 0 0 30.234 2.861 L 30.61 2.744 A 3.79 3.79 0 0 1 31.374 2.588 A 3.335 3.335 0 0 1 31.689 2.573 Q 32.217 2.573 32.532 2.73 Q 32.847 2.886 33.022 3.193 Q 33.262 3.613 33.309 4.52 A 9.178 9.178 0 0 1 33.32 4.995 Z M 11.675 2.671 L 12.788 2.671 A 4.2 4.2 0 0 0 12.663 3.248 A 3.488 3.488 0 0 0 12.632 3.579 Q 12.614 3.968 12.607 4.23 A 20.796 20.796 0 0 0 12.605 4.29 A 60.125 60.125 0 0 0 12.593 4.849 A 67.15 67.15 0 0 0 12.583 6.006 Q 12.583 6.597 12.49 7.151 A 6.529 6.529 0 0 1 12.397 7.609 Q 12.341 7.843 12.27 8.046 A 3.835 3.835 0 0 1 12.244 8.12 Q 12.095 8.521 11.905 8.809 A 2.415 2.415 0 0 1 11.892 8.828 A 3.279 3.279 0 0 1 11.69 9.098 A 2.479 2.479 0 0 1 11.479 9.321 A 2.17 2.17 0 0 1 10.664 9.8 A 0.417 0.417 0 0 1 10.568 9.745 Q 10.53 9.716 10.493 9.677 A 0.753 0.753 0 0 1 10.476 9.658 A 0.614 0.614 0 0 1 10.42 9.585 Q 10.379 9.521 10.366 9.458 Q 10.923 9.233 11.25 8.34 Q 11.377 7.993 11.46 7.485 Q 10.986 7.7 10.527 7.7 Q 10.068 7.7 9.766 7.583 A 1.41 1.41 0 0 1 9.248 7.241 Q 8.815 6.79 8.799 6.007 A 2.961 2.961 0 0 1 8.799 5.947 A 4.464 4.464 0 0 1 8.907 4.936 Q 9.113 4.05 9.712 3.467 Q 10.527 2.671 11.675 2.671 Z M 7.715 7.603 L 6.274 7.603 Q 6.497 6.837 6.499 4.982 A 31.743 31.743 0 0 0 6.499 4.951 Q 6.499 3.628 6.265 3.13 A 1.654 1.654 0 0 0 6.16 2.937 A 1.488 1.488 0 0 0 6.133 2.896 L 5.972 2.671 L 7.705 2.671 A 4.692 4.692 0 0 0 7.601 3.193 Q 7.517 3.768 7.497 4.603 A 22.826 22.826 0 0 0 7.49 5.154 A 20.297 20.297 0 0 0 7.504 5.936 Q 7.535 6.719 7.63 7.238 A 3.732 3.732 0 0 0 7.715 7.603 Z M 11.567 5.972 L 11.582 4.507 A 20.373 20.373 0 0 0 11.578 4.092 Q 11.569 3.649 11.539 3.346 A 4.345 4.345 0 0 0 11.519 3.169 A 1.541 1.541 0 0 0 10.557 3.789 A 2.163 2.163 0 0 0 10.425 3.989 A 2.821 2.821 0 0 0 10.122 4.776 Q 10.02 5.218 10.02 5.752 A 6.907 6.907 0 0 0 10.026 6.057 Q 10.039 6.35 10.079 6.538 A 1.087 1.087 0 0 0 10.12 6.685 A 1.59 1.59 0 0 0 10.186 6.841 Q 10.263 6.998 10.359 7.085 A 0.482 0.482 0 0 0 10.694 7.212 A 0.425 0.425 0 0 0 10.696 7.212 A 0.851 0.851 0 0 0 10.882 7.192 A 0.675 0.675 0 0 0 11.045 7.134 Q 11.196 7.056 11.313 6.899 A 1.156 1.156 0 0 0 11.496 6.528 Q 11.543 6.369 11.559 6.179 A 2.445 2.445 0 0 0 11.567 5.972 Z M 21.748 5.781 L 21.748 5.059 A 2.253 2.253 0 0 0 21.187 5.18 A 1.755 1.755 0 0 0 20.62 5.513 A 1.341 1.341 0 0 0 20.139 6.488 A 1.658 1.658 0 0 0 20.137 6.577 Q 20.137 6.88 20.276 7.046 A 0.473 0.473 0 0 0 20.417 7.162 A 0.438 0.438 0 0 0 20.625 7.212 A 0.809 0.809 0 0 0 21.006 7.115 A 0.959 0.959 0 0 0 21.03 7.102 A 1.207 1.207 0 0 0 21.317 6.876 A 1.427 1.427 0 0 0 21.382 6.802 Q 21.748 6.367 21.748 5.781 Z M 32.202 5.781 L 32.202 5.059 A 2.253 2.253 0 0 0 31.641 5.18 A 1.755 1.755 0 0 0 31.074 5.513 A 1.341 1.341 0 0 0 30.593 6.488 A 1.658 1.658 0 0 0 30.591 6.577 Q 30.591 6.88 30.73 7.046 A 0.473 0.473 0 0 0 30.871 7.162 A 0.438 0.438 0 0 0 31.079 7.212 A 0.809 0.809 0 0 0 31.46 7.115 A 0.959 0.959 0 0 0 31.484 7.102 A 1.207 1.207 0 0 0 31.771 6.876 A 1.427 1.427 0 0 0 31.836 6.802 Q 32.202 6.367 32.202 5.781 Z M 7.385 1.607 A 1.028 1.028 0 0 0 7.6 1.357 A 1.364 1.364 0 0 0 7.754 1.006 Q 7.808 0.815 7.808 0.671 A 0.861 0.861 0 0 0 7.802 0.576 A 0.687 0.687 0 0 0 7.764 0.41 Q 7.656 0.099 7.297 0.024 A 1.251 1.251 0 0 0 7.041 0 A 1.527 1.527 0 0 0 6.976 0.001 Q 6.895 0.005 6.825 0.017 A 0.809 0.809 0 0 0 6.685 0.054 A 0.826 0.826 0 0 0 6.607 0.087 Q 6.384 0.196 6.311 0.414 A 0.749 0.749 0 0 0 6.274 0.654 A 1.34 1.34 0 0 0 6.475 1.357 A 0.985 0.985 0 0 0 6.714 1.628 A 0.512 0.512 0 0 0 7.036 1.738 A 0.512 0.512 0 0 0 7.358 1.628 A 0.974 0.974 0 0 0 7.385 1.607 Z" vector-effect="non-scaling-stroke"/></g></svg>