<svg width="418.415" height="71.729" viewBox="0 0 418.415 71.729" xmlns="http://www.w3.org/2000/svg"><g id="svgGroup" stroke-linecap="round" fill-rule="evenodd" font-size="9pt" stroke="#000000" stroke-width="0.25mm" fill="#ffffff" style="stroke:#000000;stroke-width:0.25mm;fill:#ffffff"><path d="M 378.467 19.873 L 378.467 69.141 A 5.508 5.508 0 0 1 378.426 69.836 Q 378.33 70.587 378.008 71.002 A 1.343 1.343 0 0 1 377.857 71.167 Q 377.3 71.679 376.031 71.724 A 7.074 7.074 0 0 1 375.781 71.729 L 365.381 71.729 A 6.023 6.023 0 0 1 364.663 71.689 Q 363.754 71.579 363.306 71.167 A 1.556 1.556 0 0 1 362.934 70.619 Q 362.728 70.133 362.7 69.384 A 6.493 6.493 0 0 1 362.695 69.141 L 362.695 14.795 A 43.193 43.193 0 0 1 362.784 11.941 Q 362.971 9.117 363.558 7.188 A 12.429 12.429 0 0 1 363.599 7.056 A 6.944 6.944 0 0 1 364.902 4.634 A 6.531 6.531 0 0 1 367.114 2.954 A 10.31 10.31 0 0 1 369.089 2.271 Q 371.055 1.788 373.827 1.72 A 37.928 37.928 0 0 1 374.756 1.709 L 387.695 1.709 A 48.648 48.648 0 0 1 396.998 2.517 Q 413.184 5.686 413.184 21.289 Q 413.184 25.815 412.028 29.101 A 14.613 14.613 0 0 1 411.182 31.055 A 19.069 19.069 0 0 1 409.013 34.349 A 14.801 14.801 0 0 1 406.201 36.987 A 29.175 29.175 0 0 1 403.247 38.849 A 22.425 22.425 0 0 1 400.342 40.186 L 400.342 40.43 A 26.749 26.749 0 0 1 404.211 43.547 A 34.009 34.009 0 0 1 406.567 46.069 A 53.985 53.985 0 0 1 411.914 53.638 A 69.005 69.005 0 0 1 415.091 59.698 A 60.189 60.189 0 0 1 415.967 61.694 Q 417.319 64.935 417.991 67.61 A 26.664 26.664 0 0 1 418.262 68.799 A 9.299 9.299 0 0 1 418.354 69.339 Q 418.503 70.405 418.286 70.996 Q 418.041 71.665 416.838 71.723 A 4.922 4.922 0 0 1 416.602 71.729 L 405.322 71.729 Q 404.053 71.729 403.101 71.191 A 2.42 2.42 0 0 1 402.498 70.69 Q 402.017 70.155 401.585 69.212 A 11.411 11.411 0 0 1 401.367 68.701 Q 398.207 60.759 394.233 55.314 A 40.246 40.246 0 0 0 392.822 53.491 A 80.949 80.949 0 0 0 388.804 48.94 Q 386.771 46.813 384.802 45.122 A 43.725 43.725 0 0 0 383.496 44.043 Q 380.615 41.748 380.615 40.771 A 1.872 1.872 0 0 1 380.696 40.26 Q 380.836 39.771 381.22 39.128 A 10.385 10.385 0 0 1 381.543 38.623 Q 382.116 37.811 383.203 36.672 A 34.458 34.458 0 0 1 383.252 36.621 Q 384.375 35.449 385.205 34.863 A 9.405 9.405 0 0 1 385.647 34.568 Q 386.055 34.314 386.366 34.193 A 2.068 2.068 0 0 1 386.548 34.131 A 2.806 2.806 0 0 1 386.881 34.06 Q 387.247 34.002 387.782 33.989 A 13.721 13.721 0 0 1 388.135 33.984 Q 391.748 33.984 394.165 31.494 A 7.519 7.519 0 0 0 395.796 28.822 Q 396.232 27.643 396.426 26.175 A 19.425 19.425 0 0 0 396.582 23.633 Q 396.582 18.555 394.019 16.187 Q 391.604 13.956 387.48 13.826 A 16.418 16.418 0 0 0 386.963 13.818 L 384.033 13.818 A 11.898 11.898 0 0 0 382.55 13.904 Q 380.945 14.106 380.059 14.788 A 2.808 2.808 0 0 0 379.639 15.186 A 3.887 3.887 0 0 0 378.973 16.352 Q 378.467 17.691 378.467 19.873 Z M 331.299 29.639 L 331.299 9.521 A 6.598 6.598 0 0 1 331.342 8.741 Q 331.442 7.903 331.776 7.391 A 1.98 1.98 0 0 1 331.787 7.373 Q 333.587 4.733 336.568 1.863 A 56.773 56.773 0 0 1 337.94 0.586 A 4.157 4.157 0 0 1 338.325 0.309 Q 338.819 0 339.209 0 A 1.346 1.346 0 0 1 339.75 0.12 Q 339.948 0.207 340.15 0.355 A 3.176 3.176 0 0 1 340.43 0.586 Q 342.578 2.441 344.043 4.126 A 40.617 40.617 0 0 1 345.567 5.982 A 31.773 31.773 0 0 1 346.582 7.373 Q 346.954 7.968 347.043 8.904 A 6.562 6.562 0 0 1 347.07 9.521 L 347.07 69.141 A 5.508 5.508 0 0 1 347.03 69.836 Q 346.934 70.587 346.611 71.002 A 1.343 1.343 0 0 1 346.46 71.167 Q 345.903 71.679 344.635 71.724 A 7.074 7.074 0 0 1 344.385 71.729 L 333.984 71.729 A 6.023 6.023 0 0 1 333.267 71.689 Q 332.357 71.579 331.909 71.167 A 1.556 1.556 0 0 1 331.537 70.619 Q 331.331 70.133 331.303 69.384 A 6.493 6.493 0 0 1 331.299 69.141 L 331.299 43.213 L 302.295 43.213 L 302.295 69.141 A 5.508 5.508 0 0 1 302.254 69.836 Q 302.158 70.587 301.836 71.002 A 1.343 1.343 0 0 1 301.685 71.167 Q 301.128 71.679 299.859 71.724 A 7.074 7.074 0 0 1 299.609 71.729 L 289.209 71.729 A 6.023 6.023 0 0 1 288.491 71.689 Q 287.582 71.579 287.134 71.167 A 1.556 1.556 0 0 1 286.762 70.619 Q 286.556 70.133 286.528 69.384 A 6.493 6.493 0 0 1 286.523 69.141 L 286.523 4.297 A 5.508 5.508 0 0 1 286.564 3.602 Q 286.66 2.85 286.983 2.435 A 1.343 1.343 0 0 1 287.134 2.271 Q 287.691 1.758 288.959 1.713 A 7.074 7.074 0 0 1 289.209 1.709 L 299.609 1.709 A 6.023 6.023 0 0 1 300.327 1.749 Q 301.236 1.858 301.685 2.271 A 1.556 1.556 0 0 1 302.057 2.819 Q 302.262 3.304 302.291 4.053 A 6.493 6.493 0 0 1 302.295 4.297 L 302.295 29.639 L 331.299 29.639 Z M 15.772 42.041 L 15.772 69.141 A 5.508 5.508 0 0 1 15.731 69.836 Q 15.635 70.587 15.312 71.002 A 1.343 1.343 0 0 1 15.161 71.167 Q 14.604 71.679 13.336 71.724 A 7.074 7.074 0 0 1 13.086 71.729 L 2.686 71.729 A 6.023 6.023 0 0 1 1.968 71.689 Q 1.059 71.579 0.61 71.167 A 1.556 1.556 0 0 1 0.238 70.619 Q 0.033 70.133 0.005 69.384 A 6.493 6.493 0 0 1 0 69.141 L 0 9.521 A 6.598 6.598 0 0 1 0.043 8.741 Q 0.143 7.903 0.477 7.391 A 1.98 1.98 0 0 1 0.488 7.373 Q 2.289 4.733 5.269 1.863 A 56.773 56.773 0 0 1 6.641 0.586 A 4.157 4.157 0 0 1 7.027 0.309 Q 7.52 0 7.91 0 A 1.346 1.346 0 0 1 8.451 0.12 Q 8.649 0.207 8.851 0.355 A 3.176 3.176 0 0 1 9.131 0.586 Q 11.279 2.441 12.744 4.126 A 40.617 40.617 0 0 1 14.269 5.982 A 31.773 31.773 0 0 1 15.283 7.373 Q 15.655 7.968 15.744 8.904 A 6.562 6.562 0 0 1 15.772 9.521 L 15.772 29.785 L 16.895 29.785 A 36.322 36.322 0 0 0 20.82 29.586 Q 22.781 29.372 24.431 28.929 A 16.384 16.384 0 0 0 26.807 28.101 A 16.325 16.325 0 0 0 29.944 26.299 A 12.449 12.449 0 0 0 32.666 23.56 A 16.901 16.901 0 0 0 35.474 17.188 A 34.009 34.009 0 0 0 36.231 10.01 L 36.231 9.521 A 6.598 6.598 0 0 1 36.274 8.741 Q 36.374 7.903 36.707 7.391 A 1.98 1.98 0 0 1 36.719 7.373 Q 38.519 4.733 41.499 1.863 A 56.773 56.773 0 0 1 42.871 0.586 A 4.157 4.157 0 0 1 43.257 0.309 Q 43.75 0 44.141 0 A 1.346 1.346 0 0 1 44.682 0.12 Q 44.879 0.207 45.082 0.355 A 3.176 3.176 0 0 1 45.361 0.586 Q 47.51 2.441 48.975 4.126 A 40.617 40.617 0 0 1 50.499 5.982 A 31.773 31.773 0 0 1 51.514 7.373 Q 51.886 7.968 51.974 8.904 A 6.562 6.562 0 0 1 52.002 9.521 L 52.002 10.01 A 43.9 43.9 0 0 1 51.486 16.614 A 49.962 49.962 0 0 1 51.221 18.188 A 27.982 27.982 0 0 1 48.462 26.172 Q 46.484 29.932 42.896 32.593 A 16.905 16.905 0 0 1 38.643 34.85 Q 36.739 35.552 34.488 35.948 A 29.946 29.946 0 0 1 33.643 36.084 L 33.643 36.426 A 23.465 23.465 0 0 1 42.7 41.772 A 40.31 40.31 0 0 1 49.585 50.293 A 61.287 61.287 0 0 1 53.597 58.063 A 54.774 54.774 0 0 1 54.346 59.912 A 71.322 71.322 0 0 1 55.72 63.808 Q 56.531 66.353 56.982 68.555 Q 57.373 70.361 56.982 71.045 Q 56.633 71.656 55.426 71.721 A 5.578 5.578 0 0 1 55.127 71.729 L 43.164 71.729 Q 40.951 71.729 40.358 69.916 A 3.919 3.919 0 0 1 40.234 69.434 A 29.715 29.715 0 0 0 39.348 66.069 Q 38.803 64.38 38.024 62.531 A 56.259 56.259 0 0 0 37.378 61.06 A 51.366 51.366 0 0 0 32.08 52.051 Q 28.906 47.705 25.024 44.873 Q 21.143 42.041 16.895 42.041 L 15.772 42.041 Z M 137.598 42.041 L 137.598 69.141 A 5.508 5.508 0 0 1 137.557 69.836 Q 137.461 70.587 137.138 71.002 A 1.343 1.343 0 0 1 136.987 71.167 Q 136.43 71.679 135.162 71.724 A 7.074 7.074 0 0 1 134.912 71.729 L 124.512 71.729 A 6.023 6.023 0 0 1 123.794 71.689 Q 122.885 71.579 122.437 71.167 A 1.556 1.556 0 0 1 122.065 70.619 Q 121.859 70.133 121.831 69.384 A 6.493 6.493 0 0 1 121.826 69.141 L 121.826 9.521 A 6.598 6.598 0 0 1 121.869 8.741 Q 121.969 7.903 122.303 7.391 A 1.98 1.98 0 0 1 122.315 7.373 Q 124.115 4.733 127.095 1.863 A 56.773 56.773 0 0 1 128.467 0.586 A 4.157 4.157 0 0 1 128.853 0.309 Q 129.346 0 129.736 0 A 1.346 1.346 0 0 1 130.277 0.12 Q 130.475 0.207 130.677 0.355 A 3.176 3.176 0 0 1 130.957 0.586 Q 133.106 2.441 134.57 4.126 A 40.617 40.617 0 0 1 136.095 5.982 A 31.773 31.773 0 0 1 137.109 7.373 Q 137.481 7.968 137.57 8.904 A 6.562 6.562 0 0 1 137.598 9.521 L 137.598 29.785 L 138.721 29.785 A 36.322 36.322 0 0 0 142.646 29.586 Q 144.608 29.372 146.257 28.929 A 16.384 16.384 0 0 0 148.633 28.101 A 16.325 16.325 0 0 0 151.77 26.299 A 12.449 12.449 0 0 0 154.492 23.56 A 16.901 16.901 0 0 0 157.3 17.188 A 34.009 34.009 0 0 0 158.057 10.01 L 158.057 9.521 A 6.598 6.598 0 0 1 158.1 8.741 Q 158.2 7.903 158.533 7.391 A 1.98 1.98 0 0 1 158.545 7.373 Q 160.345 4.733 163.326 1.863 A 56.773 56.773 0 0 1 164.697 0.586 A 4.157 4.157 0 0 1 165.083 0.309 Q 165.577 0 165.967 0 A 1.346 1.346 0 0 1 166.508 0.12 Q 166.705 0.207 166.908 0.355 A 3.176 3.176 0 0 1 167.188 0.586 Q 169.336 2.441 170.801 4.126 A 40.617 40.617 0 0 1 172.325 5.982 A 31.773 31.773 0 0 1 173.34 7.373 Q 173.712 7.968 173.801 8.904 A 6.562 6.562 0 0 1 173.828 9.521 L 173.828 10.01 A 43.9 43.9 0 0 1 173.312 16.614 A 49.962 49.962 0 0 1 173.047 18.188 A 27.982 27.982 0 0 1 170.288 26.172 Q 168.311 29.932 164.722 32.593 A 16.905 16.905 0 0 1 160.469 34.85 Q 158.565 35.552 156.314 35.948 A 29.946 29.946 0 0 1 155.469 36.084 L 155.469 36.426 A 23.465 23.465 0 0 1 164.526 41.772 A 40.31 40.31 0 0 1 171.411 50.293 A 61.287 61.287 0 0 1 175.423 58.063 A 54.774 54.774 0 0 1 176.172 59.912 A 71.322 71.322 0 0 1 177.546 63.808 Q 178.357 66.353 178.809 68.555 Q 179.199 70.361 178.809 71.045 Q 178.459 71.656 177.252 71.721 A 5.578 5.578 0 0 1 176.953 71.729 L 164.99 71.729 Q 162.777 71.729 162.184 69.916 A 3.919 3.919 0 0 1 162.061 69.434 A 29.715 29.715 0 0 0 161.174 66.069 Q 160.629 64.38 159.85 62.531 A 56.259 56.259 0 0 0 159.204 61.06 A 51.366 51.366 0 0 0 153.906 52.051 Q 150.732 47.705 146.851 44.873 Q 142.969 42.041 138.721 42.041 L 137.598 42.041 Z M 103.809 71.729 L 79.248 71.729 A 32.345 32.345 0 0 1 76.61 71.628 Q 73.484 71.371 71.607 70.459 Q 68.994 69.189 68.091 66.309 A 16.529 16.529 0 0 1 67.577 64.103 Q 67.382 62.943 67.285 61.578 A 41.433 41.433 0 0 1 67.188 58.643 L 67.188 14.795 A 43.193 43.193 0 0 1 67.276 11.941 Q 67.463 9.117 68.05 7.188 A 12.429 12.429 0 0 1 68.091 7.056 A 6.944 6.944 0 0 1 69.394 4.634 A 6.531 6.531 0 0 1 71.607 2.954 A 10.31 10.31 0 0 1 73.581 2.271 Q 75.547 1.788 78.319 1.72 A 37.928 37.928 0 0 1 79.248 1.709 L 102.197 1.709 Q 103.302 1.709 103.886 2.056 A 1.579 1.579 0 0 1 103.955 2.1 A 24.54 24.54 0 0 1 105.414 3.197 A 31.725 31.725 0 0 1 106.592 4.199 A 29.942 29.942 0 0 1 107.984 5.531 Q 108.71 6.268 109.473 7.129 A 4.245 4.245 0 0 1 109.686 7.431 Q 109.961 7.861 109.961 8.154 A 0.965 0.965 0 0 1 109.886 8.513 Q 109.778 8.785 109.509 9.09 A 3.453 3.453 0 0 1 109.473 9.131 A 41.88 41.88 0 0 1 108.041 10.672 Q 107.297 11.431 106.592 12.061 A 31.229 31.229 0 0 1 105.249 13.196 A 24.142 24.142 0 0 1 103.955 14.16 Q 103.272 14.551 102.197 14.551 L 88.525 14.551 A 11.898 11.898 0 0 0 87.042 14.636 Q 85.437 14.839 84.551 15.521 A 2.808 2.808 0 0 0 84.131 15.918 A 3.887 3.887 0 0 0 83.465 17.085 Q 82.959 18.423 82.959 20.605 L 82.959 30.078 L 100.488 30.078 Q 101.593 30.078 102.177 30.425 A 1.579 1.579 0 0 1 102.246 30.469 A 24.54 24.54 0 0 1 103.705 31.566 A 31.725 31.725 0 0 1 104.883 32.568 A 29.942 29.942 0 0 1 106.275 33.9 Q 107.001 34.637 107.764 35.498 A 4.245 4.245 0 0 1 107.977 35.8 Q 108.252 36.23 108.252 36.523 A 0.965 0.965 0 0 1 108.178 36.882 Q 108.069 37.155 107.8 37.459 A 3.453 3.453 0 0 1 107.764 37.5 A 41.88 41.88 0 0 1 106.332 39.041 Q 105.588 39.8 104.883 40.43 A 31.229 31.229 0 0 1 103.54 41.565 A 24.142 24.142 0 0 1 102.246 42.529 Q 101.563 42.92 100.488 42.92 L 82.959 42.92 L 82.959 52.783 A 14.487 14.487 0 0 0 83.042 54.39 Q 83.228 56.052 83.833 57.05 A 3.525 3.525 0 0 0 84.131 57.471 Q 85.219 58.786 88.076 58.88 A 13.697 13.697 0 0 0 88.525 58.887 L 103.809 58.887 Q 104.913 58.887 105.497 59.234 A 1.579 1.579 0 0 1 105.566 59.277 A 24.54 24.54 0 0 1 107.026 60.374 A 31.725 31.725 0 0 1 108.203 61.377 A 29.942 29.942 0 0 1 109.596 62.708 Q 110.321 63.445 111.084 64.307 A 4.245 4.245 0 0 1 111.298 64.609 Q 111.572 65.039 111.572 65.332 A 0.965 0.965 0 0 1 111.498 65.69 Q 111.389 65.963 111.121 66.268 A 3.453 3.453 0 0 1 111.084 66.309 A 41.88 41.88 0 0 1 109.652 67.85 Q 108.908 68.609 108.203 69.238 A 31.229 31.229 0 0 1 106.86 70.374 A 24.142 24.142 0 0 1 105.566 71.338 Q 104.883 71.729 103.809 71.729 Z M 245.117 71.729 L 233.301 71.729 A 3.322 3.322 0 0 1 232.36 71.607 Q 230.983 71.2 230.908 69.434 A 59.213 59.213 0 0 0 230.57 65.002 Q 230.307 62.647 229.856 59.969 A 127.128 127.128 0 0 0 229.15 56.152 L 202.49 56.152 A 126.405 126.405 0 0 0 201.63 61.591 Q 201.05 65.894 200.928 69.434 A 3.189 3.189 0 0 1 200.756 70.383 Q 200.269 71.729 198.438 71.729 L 186.865 71.729 A 2.481 2.481 0 0 1 186.152 71.63 A 1.996 1.996 0 0 1 185.4 71.216 A 1.399 1.399 0 0 1 185.022 70.656 Q 184.838 70.181 184.862 69.458 A 5.276 5.276 0 0 1 184.863 69.434 Q 185.073 64.776 186.094 59.018 A 118.592 118.592 0 0 1 186.45 57.104 A 158.805 158.805 0 0 1 188.918 46.452 A 182.651 182.651 0 0 1 189.941 42.773 Q 192.09 35.352 194.727 28.247 A 168.969 168.969 0 0 1 197.927 20.232 A 135.731 135.731 0 0 1 200.195 15.234 A 90.32 90.32 0 0 1 202.299 11.105 Q 204.034 7.916 205.713 5.566 A 13.147 13.147 0 0 1 206.845 4.166 Q 207.495 3.473 208.177 2.986 A 7.068 7.068 0 0 1 208.716 2.637 Q 210.21 1.763 212.374 1.712 A 11.511 11.511 0 0 1 212.647 1.709 L 219.678 1.709 Q 221.751 1.709 223.238 2.406 A 5.945 5.945 0 0 1 223.682 2.637 A 7.897 7.897 0 0 1 225.149 3.743 Q 225.755 4.313 226.329 5.054 A 14.494 14.494 0 0 1 226.709 5.566 A 45.629 45.629 0 0 1 228.74 8.692 Q 229.801 10.468 230.879 12.571 A 94.122 94.122 0 0 1 232.202 15.259 A 152.65 152.65 0 0 1 235.603 23.019 A 188.353 188.353 0 0 1 237.647 28.271 Q 240.283 35.352 242.407 42.749 A 186.183 186.183 0 0 1 245.07 53.093 A 160.426 160.426 0 0 1 245.898 56.982 A 96.679 96.679 0 0 1 246.87 62.674 Q 247.351 66.147 247.461 69.141 A 5.434 5.434 0 0 1 247.462 69.243 Q 247.462 71.371 245.743 71.677 A 3.575 3.575 0 0 1 245.117 71.729 Z M 215.967 17.139 L 215.674 17.139 A 57.309 57.309 0 0 0 212.632 22.67 Q 211.317 25.386 210.109 28.498 A 94.051 94.051 0 0 0 209.766 29.395 Q 207.08 36.523 205.127 44.043 L 226.318 44.043 A 163.731 163.731 0 0 0 221.582 29.395 A 106.152 106.152 0 0 0 219.186 23.54 Q 217.615 20.023 215.967 17.139 Z" vector-effect="non-scaling-stroke"/></g></svg>