<svg width="651.601" height="93.6" viewBox="0 0 651.601 93.6" xmlns="http://www.w3.org/2000/svg"><g id="svgGroup" stroke-linecap="round" fill-rule="evenodd" font-size="9pt" stroke="#ffffff" stroke-width="0.25mm" fill="#ffffff" style="stroke:#ffffff;stroke-width:0.25mm;fill:#ffffff"><path d="M 184.401 46.3 L 230.101 46.3 A 29.027 29.027 0 0 0 229.05 40.022 A 23.299 23.299 0 0 0 226.901 34.9 Q 224.101 30 219.301 27.25 A 20.631 20.631 0 0 0 211.945 24.769 A 26.653 26.653 0 0 0 208.101 24.5 Q 201.501 24.5 196.301 27.55 Q 191.101 30.6 188.151 35.95 A 23.661 23.661 0 0 0 185.447 44.391 A 30.143 30.143 0 0 0 185.201 48.3 A 28.27 28.27 0 0 0 186.009 55.19 A 23.205 23.205 0 0 0 188.151 60.7 Q 191.101 66.1 196.301 69.15 A 22.326 22.326 0 0 0 206.072 72.126 A 27.23 27.23 0 0 0 208.101 72.2 A 28.862 28.862 0 0 0 216.102 71.148 A 21.503 21.503 0 0 0 226.401 64.7 L 227.801 66.1 A 24.118 24.118 0 0 1 220.143 71.632 A 28.017 28.017 0 0 1 219.201 72.05 A 27.756 27.756 0 0 1 209.77 74.157 A 32.476 32.476 0 0 1 208.101 74.2 Q 201.001 74.2 195.351 70.85 Q 189.701 67.5 186.451 61.65 A 25.884 25.884 0 0 1 183.379 51.725 A 32.155 32.155 0 0 1 183.201 48.3 A 29.536 29.536 0 0 1 184.173 40.59 A 24.906 24.906 0 0 1 186.451 34.95 Q 189.701 29.1 195.351 25.8 A 24.355 24.355 0 0 1 206.348 22.552 A 29.44 29.44 0 0 1 208.101 22.5 Q 215.301 22.5 220.701 25.8 Q 226.101 29.1 229.101 34.95 A 27.204 27.204 0 0 1 231.857 44.157 A 34.282 34.282 0 0 1 232.101 48.3 L 184.401 48.3 L 184.401 46.3 Z M 495.801 46.3 L 541.501 46.3 A 29.027 29.027 0 0 0 540.45 40.022 A 23.299 23.299 0 0 0 538.301 34.9 Q 535.501 30 530.701 27.25 A 20.631 20.631 0 0 0 523.345 24.769 A 26.653 26.653 0 0 0 519.501 24.5 Q 512.901 24.5 507.701 27.55 Q 502.501 30.6 499.551 35.95 A 23.661 23.661 0 0 0 496.847 44.391 A 30.143 30.143 0 0 0 496.601 48.3 A 28.27 28.27 0 0 0 497.409 55.19 A 23.205 23.205 0 0 0 499.551 60.7 Q 502.501 66.1 507.701 69.15 A 22.326 22.326 0 0 0 517.472 72.126 A 27.23 27.23 0 0 0 519.501 72.2 A 28.862 28.862 0 0 0 527.502 71.148 A 21.503 21.503 0 0 0 537.801 64.7 L 539.201 66.1 A 24.118 24.118 0 0 1 531.543 71.632 A 28.017 28.017 0 0 1 530.601 72.05 A 27.756 27.756 0 0 1 521.17 74.157 A 32.476 32.476 0 0 1 519.501 74.2 Q 512.401 74.2 506.751 70.85 Q 501.101 67.5 497.851 61.65 A 25.884 25.884 0 0 1 494.779 51.725 A 32.155 32.155 0 0 1 494.601 48.3 A 29.536 29.536 0 0 1 495.573 40.59 A 24.906 24.906 0 0 1 497.851 34.95 Q 501.101 29.1 506.751 25.8 A 24.355 24.355 0 0 1 517.748 22.552 A 29.44 29.44 0 0 1 519.501 22.5 Q 526.701 22.5 532.101 25.8 Q 537.501 29.1 540.501 34.95 A 27.204 27.204 0 0 1 543.257 44.157 A 34.282 34.282 0 0 1 543.501 48.3 L 495.801 48.3 L 495.801 46.3 Z M 59.901 13 L 58.601 14.3 Q 54.101 10.2 48.251 8 Q 42.401 5.8 35.901 5.8 Q 28.901 5.8 22.751 8.4 Q 16.601 11 11.901 15.6 Q 7.201 20.2 4.551 26.25 Q 1.901 32.3 1.901 39.2 Q 1.901 46.1 4.551 52.15 Q 7.201 58.2 11.901 62.8 Q 16.601 67.4 22.751 70 Q 28.901 72.6 35.901 72.6 Q 42.401 72.6 48.251 70.3 Q 54.101 68 58.601 64 L 60.001 65.3 Q 56.801 68.1 52.951 70.2 Q 49.101 72.3 44.801 73.4 Q 40.501 74.5 35.901 74.5 Q 28.501 74.5 22.001 71.75 Q 15.501 69 10.551 64.1 Q 5.601 59.2 2.801 52.8 Q 0.001 46.4 0.001 39.2 Q 0.001 31.9 2.801 25.5 Q 5.601 19.1 10.551 14.25 Q 15.501 9.4 22.001 6.65 Q 28.501 3.9 35.901 3.9 Q 40.501 3.9 44.801 5 Q 49.101 6.1 52.901 8.1 Q 56.701 10.1 59.901 13 Z M 111.101 22.5 L 86.901 81.7 A 31.526 31.526 0 0 1 84.946 85.663 Q 83.188 88.644 81.001 90.55 A 13.171 13.171 0 0 1 77.838 92.628 A 10.544 10.544 0 0 1 73.401 93.6 A 19.842 19.842 0 0 1 69.892 93.3 A 17.123 17.123 0 0 1 68.351 92.95 A 13.511 13.511 0 0 1 65.441 91.783 A 11.863 11.863 0 0 1 64.201 91 L 65.101 89.3 A 13.314 13.314 0 0 0 70.796 91.438 A 17.302 17.302 0 0 0 73.201 91.6 A 10.073 10.073 0 0 0 79.303 89.532 A 13.169 13.169 0 0 0 80.151 88.85 A 16.107 16.107 0 0 0 82.973 85.574 Q 84.019 83.993 84.876 82.027 A 29.609 29.609 0 0 0 85.301 81 L 87.901 74.4 L 66.501 22.5 L 68.801 22.5 L 88.901 71.9 L 108.701 22.5 L 111.101 22.5 Z M 648.701 26.2 L 647.701 27.9 A 20.103 20.103 0 0 0 643.745 25.962 A 24.112 24.112 0 0 0 642.001 25.4 A 24.063 24.063 0 0 0 637.542 24.606 A 29.633 29.633 0 0 0 635.001 24.5 A 25.283 25.283 0 0 0 630.358 24.904 Q 627.195 25.495 624.701 26.95 A 7.985 7.985 0 0 0 620.674 32.664 A 11.441 11.441 0 0 0 620.501 34.7 A 10.911 10.911 0 0 0 620.767 37.18 A 7.237 7.237 0 0 0 622.751 40.8 A 14.749 14.749 0 0 0 625.787 43.06 A 19.818 19.818 0 0 0 628.551 44.35 A 84.197 84.197 0 0 0 634.584 46.379 A 94.499 94.499 0 0 0 636.051 46.8 A 57.098 57.098 0 0 1 643.105 49.258 A 52.659 52.659 0 0 1 643.551 49.45 A 16.909 16.909 0 0 1 647.265 51.644 A 14.456 14.456 0 0 1 649.351 53.65 A 9.012 9.012 0 0 1 651.17 57.217 Q 651.601 58.831 651.601 60.8 A 13.918 13.918 0 0 1 651.188 64.273 A 10.4 10.4 0 0 1 649.101 68.4 A 14.331 14.331 0 0 1 643.379 72.523 A 17.156 17.156 0 0 1 642.651 72.8 A 24.791 24.791 0 0 1 635.179 74.183 A 28.367 28.367 0 0 1 634.201 74.2 Q 628.801 74.2 624.001 72.3 A 25.135 25.135 0 0 1 616.482 67.726 A 23.959 23.959 0 0 1 615.701 67 L 617.001 65.5 Q 620.301 68.7 624.701 70.45 A 25.08 25.08 0 0 0 632.937 72.173 A 28.991 28.991 0 0 0 634.201 72.2 A 25.429 25.429 0 0 0 638.707 71.816 A 20.854 20.854 0 0 0 641.701 71.05 A 13.693 13.693 0 0 0 645.399 69.166 A 12.186 12.186 0 0 0 647.301 67.45 A 8.895 8.895 0 0 0 649.489 62.644 A 11.778 11.778 0 0 0 649.601 61.3 A 13.115 13.115 0 0 0 649.617 60.645 Q 649.617 57.108 647.601 55 A 14.609 14.609 0 0 0 644.559 52.597 A 19.606 19.606 0 0 0 641.851 51.25 A 71.888 71.888 0 0 0 636.273 49.244 A 81.359 81.359 0 0 0 634.301 48.65 A 64.437 64.437 0 0 1 627.607 46.331 A 59.052 59.052 0 0 1 626.701 45.95 A 17.873 17.873 0 0 1 623.062 43.874 A 14.922 14.922 0 0 1 620.801 41.8 A 8.88 8.88 0 0 1 618.811 37.829 A 13.069 13.069 0 0 1 618.501 34.9 A 13.429 13.429 0 0 1 618.83 31.842 A 9.394 9.394 0 0 1 620.751 27.9 A 12.932 12.932 0 0 1 624.943 24.623 A 16.381 16.381 0 0 1 626.751 23.85 A 23.092 23.092 0 0 1 632.99 22.566 A 27.357 27.357 0 0 1 634.901 22.5 A 29.378 29.378 0 0 1 639.54 22.853 A 24.125 24.125 0 0 1 642.451 23.5 A 26.875 26.875 0 0 1 647.074 25.299 A 23.572 23.572 0 0 1 648.701 26.2 Z M 601.401 74.2 L 601.401 42.9 A 25.062 25.062 0 0 0 600.828 37.374 Q 599.973 33.592 597.843 30.822 A 15.068 15.068 0 0 0 596.551 29.35 A 15.976 15.976 0 0 0 588.854 25.14 Q 586.225 24.5 583.101 24.5 A 27.045 27.045 0 0 0 576.279 25.451 A 19.198 19.198 0 0 0 567.001 31.15 Q 561.677 37.071 561.24 47.079 A 41.777 41.777 0 0 0 561.201 48.9 L 559.401 48.9 Q 559.401 41.293 561.811 35.708 A 24.142 24.142 0 0 1 562.201 34.85 Q 565.001 29 570.351 25.8 A 22.82 22.82 0 0 1 578.047 22.972 A 30.475 30.475 0 0 1 583.101 22.5 A 27.941 27.941 0 0 1 588.259 22.952 Q 591.456 23.553 594.051 24.95 Q 598.601 27.4 601.001 31.95 A 20.058 20.058 0 0 1 602.925 37.567 Q 603.401 40.05 603.401 42.9 L 603.401 74.2 L 601.401 74.2 Z M 155.192 23.502 A 27.099 27.099 0 0 0 147.701 22.5 A 29.732 29.732 0 0 0 145.815 22.559 A 24.478 24.478 0 0 0 134.801 25.85 Q 129.101 29.2 125.851 35.05 A 24.906 24.906 0 0 0 123.573 40.69 A 29.536 29.536 0 0 0 122.601 48.4 A 31.844 31.844 0 0 0 122.716 51.127 A 25.985 25.985 0 0 0 125.851 61.65 Q 129.101 67.5 134.801 70.85 Q 140.501 74.2 147.701 74.2 A 29.789 29.789 0 0 0 150.598 74.062 A 24.03 24.03 0 0 0 160.651 70.85 Q 166.301 67.5 169.551 61.65 A 24.981 24.981 0 0 0 171.772 56.235 A 28.937 28.937 0 0 0 172.801 48.4 A 32.155 32.155 0 0 0 172.622 44.975 A 25.884 25.884 0 0 0 169.551 35.05 Q 166.301 29.2 160.651 25.85 A 23.156 23.156 0 0 0 155.192 23.502 Z M 314.792 23.502 A 27.099 27.099 0 0 0 307.301 22.5 A 29.732 29.732 0 0 0 305.415 22.559 A 24.478 24.478 0 0 0 294.401 25.85 Q 288.701 29.2 285.451 35.05 A 24.906 24.906 0 0 0 283.173 40.69 A 29.536 29.536 0 0 0 282.201 48.4 A 31.844 31.844 0 0 0 282.316 51.127 A 25.985 25.985 0 0 0 285.451 61.65 Q 288.701 67.5 294.401 70.85 Q 300.101 74.2 307.301 74.2 A 29.789 29.789 0 0 0 310.198 74.062 A 24.03 24.03 0 0 0 320.251 70.85 Q 325.901 67.5 329.151 61.65 A 24.981 24.981 0 0 0 331.372 56.235 A 28.937 28.937 0 0 0 332.401 48.4 A 32.155 32.155 0 0 0 332.222 44.975 A 25.884 25.884 0 0 0 329.151 35.05 Q 325.901 29.2 320.251 25.85 A 23.156 23.156 0 0 0 314.792 23.502 Z M 122.601 74.2 L 122.601 0 L 124.601 0 L 124.601 74.2 L 122.601 74.2 Z M 282.201 74.2 L 282.201 0 L 284.201 0 L 284.201 74.2 L 282.201 74.2 Z M 373.101 74.2 L 373.101 0 L 375.101 0 L 375.101 74.2 L 373.101 74.2 Z M 398.101 74.2 L 398.101 0 L 400.101 0 L 400.101 74.2 L 398.101 74.2 Z M 447.101 74.2 L 447.101 0 L 449.101 0 L 449.101 74.2 L 447.101 74.2 Z M 147.701 24.5 A 24.659 24.659 0 0 0 140.684 25.467 A 21.256 21.256 0 0 0 135.801 27.6 Q 130.601 30.7 127.601 36.1 A 23.934 23.934 0 0 0 124.744 45.453 A 29.649 29.649 0 0 0 124.601 48.4 A 27.086 27.086 0 0 0 125.447 55.294 A 22.65 22.65 0 0 0 127.601 60.65 Q 130.601 66 135.801 69.1 A 22.068 22.068 0 0 0 145.241 72.091 A 27.267 27.267 0 0 0 147.701 72.2 A 24.659 24.659 0 0 0 154.718 71.233 A 21.256 21.256 0 0 0 159.601 69.1 Q 164.801 66 167.801 60.65 Q 170.801 55.3 170.801 48.4 A 27.098 27.098 0 0 0 169.878 41.207 A 22.999 22.999 0 0 0 167.801 36.1 Q 164.801 30.7 159.601 27.6 A 22.068 22.068 0 0 0 150.161 24.609 A 27.267 27.267 0 0 0 147.701 24.5 Z M 307.301 24.5 A 24.659 24.659 0 0 0 300.284 25.467 A 21.256 21.256 0 0 0 295.401 27.6 Q 290.201 30.7 287.201 36.1 A 23.934 23.934 0 0 0 284.344 45.453 A 29.649 29.649 0 0 0 284.201 48.4 A 27.086 27.086 0 0 0 285.047 55.294 A 22.65 22.65 0 0 0 287.201 60.65 Q 290.201 66 295.401 69.1 A 22.068 22.068 0 0 0 304.841 72.091 A 27.267 27.267 0 0 0 307.301 72.2 A 24.659 24.659 0 0 0 314.318 71.233 A 21.256 21.256 0 0 0 319.201 69.1 Q 324.401 66 327.401 60.65 Q 330.401 55.3 330.401 48.4 A 27.098 27.098 0 0 0 329.478 41.207 A 22.999 22.999 0 0 0 327.401 36.1 Q 324.401 30.7 319.201 27.6 A 22.068 22.068 0 0 0 309.761 24.609 A 27.267 27.267 0 0 0 307.301 24.5 Z M 247.901 74.2 L 247.901 22.5 L 249.901 22.5 L 249.901 74.2 L 247.901 74.2 Z M 348.601 74.2 L 348.601 22.5 L 350.601 22.5 L 350.601 74.2 L 348.601 74.2 Z M 422.601 74.2 L 422.601 22.5 L 424.601 22.5 L 424.601 74.2 L 422.601 74.2 Z M 559.301 74.2 L 559.301 22.5 L 561.301 22.5 L 561.301 74.2 L 559.301 74.2 Z M 448.401 56.4 L 482.001 22.5 L 484.801 22.5 L 448.401 59.5 L 448.401 56.4 Z M 462.801 42.8 L 464.401 41.6 L 487.801 74.2 L 485.401 74.2 L 462.801 42.8 Z M 269.701 22.5 L 269.701 24.5 A 22.654 22.654 0 0 0 264.371 25.186 A 17.428 17.428 0 0 0 258.951 27.6 A 18.484 18.484 0 0 0 252.936 34.371 A 22.836 22.836 0 0 0 252.151 36 Q 249.801 41.4 249.801 48.9 L 248.001 48.9 Q 248.001 41.651 249.994 36.238 A 25.673 25.673 0 0 1 250.551 34.85 A 21.515 21.515 0 0 1 254.163 29.107 A 19.016 19.016 0 0 1 258.001 25.8 A 20.003 20.003 0 0 1 265.636 22.865 A 26.204 26.204 0 0 1 269.701 22.5 Z M 350.642 5.199 A 2.659 2.659 0 0 0 349.601 5 A 2.442 2.442 0 0 0 348.567 5.224 A 2.89 2.89 0 0 0 347.801 5.75 Q 347.001 6.5 347.001 7.6 A 2.319 2.319 0 0 0 347.283 8.717 A 2.949 2.949 0 0 0 347.801 9.4 A 3.272 3.272 0 0 0 348.108 9.672 A 2.381 2.381 0 0 0 349.601 10.2 Q 350.701 10.2 351.451 9.4 Q 352.201 8.6 352.201 7.6 A 3.201 3.201 0 0 0 352.201 7.566 A 2.508 2.508 0 0 0 351.451 5.75 A 2.52 2.52 0 0 0 350.642 5.199 Z M 424.642 5.199 A 2.659 2.659 0 0 0 423.601 5 A 2.442 2.442 0 0 0 422.567 5.224 A 2.89 2.89 0 0 0 421.801 5.75 Q 421.001 6.5 421.001 7.6 A 2.319 2.319 0 0 0 421.283 8.717 A 2.949 2.949 0 0 0 421.801 9.4 A 3.272 3.272 0 0 0 422.108 9.672 A 2.381 2.381 0 0 0 423.601 10.2 Q 424.701 10.2 425.451 9.4 Q 426.201 8.6 426.201 7.6 A 3.201 3.201 0 0 0 426.201 7.566 A 2.508 2.508 0 0 0 425.451 5.75 A 2.52 2.52 0 0 0 424.642 5.199 Z" vector-effect="non-scaling-stroke"/></g></svg>