<svg width="48.086" height="7.822" viewBox="0 0 48.086 7.822" xmlns="http://www.w3.org/2000/svg"><g id="svgGroup" stroke-linecap="round" fill-rule="evenodd" font-size="9pt" stroke="#000000" stroke-width="0.25mm" fill="#ffffff" style="stroke:#000000;stroke-width:0.25mm;fill:#ffffff"><path d="M 3.662 7.676 L 1.206 7.676 Q 0.749 7.676 0.491 7.571 A 0.829 0.829 0 0 1 0.442 7.549 A 0.656 0.656 0 0 1 0.098 7.156 A 0.846 0.846 0 0 1 0.09 7.134 A 1.653 1.653 0 0 1 0.039 6.913 Q 0 6.681 0 6.367 L 0 1.982 A 4.319 4.319 0 0 1 0.009 1.697 Q 0.028 1.415 0.086 1.222 A 1.24 1.24 0 0 1 0.09 1.208 A 0.694 0.694 0 0 1 0.221 0.966 A 0.653 0.653 0 0 1 0.442 0.798 Q 0.678 0.686 1.113 0.675 A 3.793 3.793 0 0 1 1.206 0.674 L 3.501 0.674 A 0.567 0.567 0 0 1 3.562 0.677 Q 3.635 0.685 3.677 0.713 Q 3.804 0.801 3.94 0.923 A 2.994 2.994 0 0 1 4.08 1.056 Q 4.15 1.127 4.224 1.21 A 4.655 4.655 0 0 1 4.229 1.216 A 0.424 0.424 0 0 1 4.25 1.246 Q 4.269 1.277 4.275 1.3 A 0.078 0.078 0 0 1 4.277 1.318 A 0.096 0.096 0 0 1 4.27 1.354 Q 4.258 1.383 4.229 1.416 A 4.188 4.188 0 0 1 4.085 1.57 Q 4.011 1.646 3.94 1.709 Q 3.804 1.831 3.677 1.919 A 0.274 0.274 0 0 1 3.605 1.947 Q 3.573 1.955 3.536 1.957 A 0.539 0.539 0 0 1 3.501 1.958 L 2.134 1.958 A 1.19 1.19 0 0 0 1.985 1.967 Q 1.825 1.987 1.736 2.055 A 0.281 0.281 0 0 0 1.694 2.095 Q 1.589 2.217 1.578 2.496 A 1.715 1.715 0 0 0 1.577 2.563 L 1.577 3.511 L 3.33 3.511 A 0.567 0.567 0 0 1 3.391 3.514 Q 3.464 3.522 3.506 3.55 Q 3.633 3.638 3.77 3.76 A 2.994 2.994 0 0 1 3.909 3.893 Q 3.979 3.964 4.053 4.047 A 4.655 4.655 0 0 1 4.058 4.053 A 0.424 0.424 0 0 1 4.079 4.083 Q 4.099 4.114 4.104 4.137 A 0.078 0.078 0 0 1 4.106 4.155 A 0.096 0.096 0 0 1 4.099 4.191 Q 4.087 4.22 4.058 4.253 A 4.188 4.188 0 0 1 3.914 4.407 Q 3.84 4.483 3.77 4.546 Q 3.633 4.668 3.506 4.756 A 0.274 0.274 0 0 1 3.434 4.784 Q 3.402 4.791 3.365 4.794 A 0.539 0.539 0 0 1 3.33 4.795 L 1.577 4.795 L 1.577 5.781 A 1.449 1.449 0 0 0 1.585 5.942 Q 1.608 6.146 1.694 6.25 Q 1.812 6.392 2.134 6.392 L 3.662 6.392 A 0.567 0.567 0 0 1 3.723 6.395 Q 3.796 6.403 3.838 6.431 Q 3.965 6.519 4.102 6.641 A 2.994 2.994 0 0 1 4.241 6.774 Q 4.311 6.845 4.385 6.928 A 4.655 4.655 0 0 1 4.39 6.934 A 0.424 0.424 0 0 1 4.411 6.964 Q 4.431 6.994 4.436 7.018 A 0.078 0.078 0 0 1 4.438 7.036 A 0.096 0.096 0 0 1 4.431 7.072 Q 4.419 7.101 4.39 7.134 A 4.188 4.188 0 0 1 4.246 7.288 Q 4.172 7.364 4.102 7.427 Q 3.965 7.549 3.838 7.637 A 0.274 0.274 0 0 1 3.766 7.665 Q 3.734 7.672 3.697 7.675 A 0.539 0.539 0 0 1 3.662 7.676 Z M 6.377 7.676 L 5.239 7.676 Q 5.049 7.676 5.027 7.458 A 0.605 0.605 0 0 1 5.024 7.397 A 2.784 2.784 0 0 1 5.105 6.713 A 2.323 2.323 0 0 1 5.295 6.211 Q 5.527 5.765 6.058 5.402 A 3.795 3.795 0 0 1 6.25 5.278 A 2.144 2.144 0 0 1 5.437 4.497 A 2.001 2.001 0 0 1 5.142 3.452 L 5.142 3.374 A 0.453 0.453 0 0 1 5.146 3.306 Q 5.152 3.27 5.163 3.242 A 0.201 0.201 0 0 1 5.19 3.193 A 2.342 2.342 0 0 1 5.371 2.986 Q 5.468 2.886 5.589 2.78 A 5.249 5.249 0 0 1 5.791 2.612 A 0.362 0.362 0 0 1 5.831 2.587 Q 5.876 2.563 5.913 2.563 A 0.172 0.172 0 0 1 5.996 2.586 A 0.242 0.242 0 0 1 6.035 2.612 A 4.829 4.829 0 0 1 6.206 2.75 Q 6.283 2.814 6.347 2.875 A 2.692 2.692 0 0 1 6.389 2.915 A 2.777 2.777 0 0 1 6.536 3.071 A 2.16 2.16 0 0 1 6.636 3.193 Q 6.674 3.243 6.682 3.325 A 0.483 0.483 0 0 1 6.685 3.374 L 6.685 3.452 A 1.036 1.036 0 0 0 7.094 4.285 Q 7.25 4.413 7.466 4.517 A 2.491 2.491 0 0 0 7.495 4.531 A 1.829 1.829 0 0 0 7.734 4.376 Q 7.854 4.282 7.938 4.178 A 0.933 0.933 0 0 0 8.02 4.058 A 1.171 1.171 0 0 0 8.171 3.546 A 1.416 1.416 0 0 0 8.174 3.452 L 8.174 3.374 A 0.453 0.453 0 0 1 8.179 3.306 Q 8.184 3.27 8.196 3.242 A 0.201 0.201 0 0 1 8.223 3.193 A 2.14 2.14 0 0 1 8.395 2.988 Q 8.489 2.887 8.608 2.781 A 4.903 4.903 0 0 1 8.809 2.612 Q 8.85 2.58 8.888 2.569 A 0.135 0.135 0 0 1 8.926 2.563 Q 8.989 2.563 9.043 2.612 A 4.858 4.858 0 0 1 9.21 2.75 Q 9.285 2.814 9.349 2.875 A 2.745 2.745 0 0 1 9.39 2.915 A 2.528 2.528 0 0 1 9.528 3.064 A 1.941 1.941 0 0 1 9.629 3.193 Q 9.667 3.243 9.675 3.325 A 0.483 0.483 0 0 1 9.678 3.374 L 9.678 3.452 A 2.291 2.291 0 0 1 9.621 3.975 A 1.765 1.765 0 0 1 9.409 4.497 Q 9.141 4.937 8.706 5.225 A 2.327 2.327 0 0 1 9.243 5.635 A 1.97 1.97 0 0 1 9.59 6.125 A 2.65 2.65 0 0 1 9.844 6.988 A 3.333 3.333 0 0 1 9.868 7.397 Q 9.868 7.563 9.829 7.62 A 0.104 0.104 0 0 1 9.788 7.653 Q 9.752 7.671 9.694 7.675 A 0.532 0.532 0 0 1 9.658 7.676 L 8.496 7.676 Q 8.35 7.676 8.329 7.505 A 0.514 0.514 0 0 1 8.325 7.441 Q 8.325 7.129 8.266 6.883 A 1.744 1.744 0 0 0 8.264 6.875 A 1.086 1.086 0 0 0 8.094 6.507 A 1.329 1.329 0 0 0 8.018 6.409 A 1.358 1.358 0 0 0 7.851 6.247 Q 7.76 6.171 7.645 6.097 A 3.197 3.197 0 0 0 7.451 5.981 A 2.832 2.832 0 0 0 7.146 6.183 Q 6.868 6.395 6.733 6.631 A 1.46 1.46 0 0 0 6.577 7.05 Q 6.539 7.229 6.534 7.436 A 2.555 2.555 0 0 0 6.533 7.495 Q 6.533 7.575 6.515 7.617 A 0.099 0.099 0 0 1 6.504 7.637 Q 6.479 7.67 6.405 7.675 A 0.414 0.414 0 0 1 6.377 7.676 Z M 19.121 5.645 L 17.026 5.645 A 1.33 1.33 0 0 0 17.092 5.975 A 0.935 0.935 0 0 0 17.395 6.411 A 1.128 1.128 0 0 0 17.798 6.613 Q 18.017 6.675 18.291 6.675 A 2.454 2.454 0 0 0 18.573 6.66 Q 18.714 6.643 18.832 6.609 A 1.077 1.077 0 0 0 19.011 6.541 A 6.569 6.569 0 0 0 19.137 6.477 Q 19.252 6.416 19.327 6.37 A 1.063 1.063 0 0 0 19.39 6.328 A 0.32 0.32 0 0 1 19.584 6.264 A 0.373 0.373 0 0 1 19.6 6.265 Q 19.677 6.265 19.81 6.29 A 2.886 2.886 0 0 1 19.866 6.301 A 1.141 1.141 0 0 1 20.124 6.39 A 1.357 1.357 0 0 1 20.21 6.436 A 0.295 0.295 0 0 1 20.269 6.475 A 0.175 0.175 0 0 1 20.332 6.611 A 0.471 0.471 0 0 1 20.33 6.654 Q 20.325 6.71 20.308 6.792 A 2.136 2.136 0 0 1 20.299 6.83 Q 20.284 6.893 20.259 6.99 A 1.397 1.397 0 0 1 20.19 7.189 A 1.26 1.26 0 0 1 20.171 7.231 Q 20.142 7.285 20.078 7.334 Q 20.004 7.386 19.86 7.464 A 6.222 6.222 0 0 1 19.763 7.515 A 1.611 1.611 0 0 1 19.595 7.589 Q 19.417 7.656 19.17 7.712 A 2.988 2.988 0 0 1 18.862 7.764 Q 18.579 7.798 18.218 7.798 A 4.332 4.332 0 0 1 17.537 7.747 Q 17.151 7.686 16.825 7.55 A 2.706 2.706 0 0 1 16.782 7.532 A 2.016 2.016 0 0 1 15.835 6.704 Q 15.498 6.143 15.498 5.254 A 4.149 4.149 0 0 1 15.565 4.484 Q 15.712 3.707 16.182 3.237 A 2.292 2.292 0 0 1 17.456 2.597 A 3.254 3.254 0 0 1 17.998 2.554 A 3.43 3.43 0 0 1 18.56 2.597 Q 18.871 2.649 19.129 2.762 A 1.999 1.999 0 0 1 19.246 2.817 A 1.939 1.939 0 0 1 19.782 3.219 A 1.775 1.775 0 0 1 20.022 3.545 A 2.012 2.012 0 0 1 20.275 4.35 A 2.489 2.489 0 0 1 20.288 4.604 Q 20.288 4.936 20.191 5.152 A 0.666 0.666 0 0 1 19.99 5.415 A 0.973 0.973 0 0 1 19.693 5.567 Q 19.559 5.611 19.394 5.63 A 2.366 2.366 0 0 1 19.121 5.645 Z M 27.598 5.645 L 25.503 5.645 A 1.33 1.33 0 0 0 25.569 5.975 A 0.935 0.935 0 0 0 25.872 6.411 A 1.128 1.128 0 0 0 26.274 6.613 Q 26.493 6.675 26.768 6.675 A 2.454 2.454 0 0 0 27.049 6.66 Q 27.191 6.643 27.309 6.609 A 1.077 1.077 0 0 0 27.488 6.541 A 6.569 6.569 0 0 0 27.613 6.477 Q 27.729 6.416 27.803 6.37 A 1.063 1.063 0 0 0 27.866 6.328 A 0.32 0.32 0 0 1 28.061 6.264 A 0.373 0.373 0 0 1 28.076 6.265 Q 28.153 6.265 28.286 6.29 A 2.886 2.886 0 0 1 28.342 6.301 A 1.141 1.141 0 0 1 28.601 6.39 A 1.357 1.357 0 0 1 28.687 6.436 A 0.295 0.295 0 0 1 28.746 6.475 A 0.175 0.175 0 0 1 28.809 6.611 A 0.471 0.471 0 0 1 28.806 6.654 Q 28.801 6.71 28.784 6.792 A 2.136 2.136 0 0 1 28.776 6.83 Q 28.761 6.893 28.735 6.99 A 1.397 1.397 0 0 1 28.667 7.189 A 1.26 1.26 0 0 1 28.647 7.231 Q 28.618 7.285 28.555 7.334 Q 28.48 7.386 28.336 7.464 A 6.222 6.222 0 0 1 28.24 7.515 A 1.611 1.611 0 0 1 28.072 7.589 Q 27.893 7.656 27.646 7.712 A 2.988 2.988 0 0 1 27.338 7.764 Q 27.056 7.798 26.694 7.798 A 4.332 4.332 0 0 1 26.013 7.747 Q 25.628 7.686 25.302 7.55 A 2.706 2.706 0 0 1 25.259 7.532 A 2.016 2.016 0 0 1 24.312 6.704 Q 23.975 6.143 23.975 5.254 A 4.149 4.149 0 0 1 24.041 4.484 Q 24.188 3.707 24.658 3.237 A 2.292 2.292 0 0 1 25.932 2.597 A 3.254 3.254 0 0 1 26.475 2.554 A 3.43 3.43 0 0 1 27.036 2.597 Q 27.347 2.649 27.606 2.762 A 1.999 1.999 0 0 1 27.722 2.817 A 1.939 1.939 0 0 1 28.259 3.219 A 1.775 1.775 0 0 1 28.499 3.545 A 2.012 2.012 0 0 1 28.752 4.35 A 2.489 2.489 0 0 1 28.765 4.604 Q 28.765 4.936 28.668 5.152 A 0.666 0.666 0 0 1 28.467 5.415 A 0.973 0.973 0 0 1 28.17 5.567 Q 28.035 5.611 27.871 5.63 A 2.366 2.366 0 0 1 27.598 5.645 Z M 46.875 5.645 L 44.78 5.645 A 1.33 1.33 0 0 0 44.846 5.975 A 0.935 0.935 0 0 0 45.149 6.411 A 1.128 1.128 0 0 0 45.552 6.613 Q 45.771 6.675 46.045 6.675 A 2.454 2.454 0 0 0 46.327 6.66 Q 46.468 6.643 46.586 6.609 A 1.077 1.077 0 0 0 46.765 6.541 A 6.569 6.569 0 0 0 46.89 6.477 Q 47.006 6.416 47.081 6.37 A 1.063 1.063 0 0 0 47.144 6.328 A 0.32 0.32 0 0 1 47.338 6.264 A 0.373 0.373 0 0 1 47.354 6.265 Q 47.431 6.265 47.564 6.29 A 2.886 2.886 0 0 1 47.62 6.301 A 1.141 1.141 0 0 1 47.878 6.39 A 1.357 1.357 0 0 1 47.964 6.436 A 0.295 0.295 0 0 1 48.023 6.475 A 0.175 0.175 0 0 1 48.086 6.611 A 0.471 0.471 0 0 1 48.084 6.654 Q 48.079 6.71 48.062 6.792 A 2.136 2.136 0 0 1 48.053 6.83 Q 48.038 6.893 48.013 6.99 A 1.397 1.397 0 0 1 47.944 7.189 A 1.26 1.26 0 0 1 47.925 7.231 Q 47.896 7.285 47.832 7.334 Q 47.758 7.386 47.613 7.464 A 6.222 6.222 0 0 1 47.517 7.515 A 1.611 1.611 0 0 1 47.349 7.589 Q 47.171 7.656 46.924 7.712 A 2.988 2.988 0 0 1 46.615 7.764 Q 46.333 7.798 45.972 7.798 A 4.332 4.332 0 0 1 45.291 7.747 Q 44.905 7.686 44.579 7.55 A 2.706 2.706 0 0 1 44.536 7.532 A 2.016 2.016 0 0 1 43.589 6.704 Q 43.252 6.143 43.252 5.254 A 4.149 4.149 0 0 1 43.319 4.484 Q 43.466 3.707 43.936 3.237 A 2.292 2.292 0 0 1 45.21 2.597 A 3.254 3.254 0 0 1 45.752 2.554 A 3.43 3.43 0 0 1 46.314 2.597 Q 46.625 2.649 46.883 2.762 A 1.999 1.999 0 0 1 47 2.817 A 1.939 1.939 0 0 1 47.536 3.219 A 1.775 1.775 0 0 1 47.776 3.545 A 2.012 2.012 0 0 1 48.029 4.35 A 2.489 2.489 0 0 1 48.042 4.604 Q 48.042 4.936 47.945 5.152 A 0.666 0.666 0 0 1 47.744 5.415 A 0.973 0.973 0 0 1 47.447 5.567 Q 47.312 5.611 47.148 5.63 A 2.366 2.366 0 0 1 46.875 5.645 Z M 38.145 4.688 L 38.145 7.451 A 0.28 0.28 0 0 1 38.133 7.535 A 0.235 0.235 0 0 1 38.093 7.61 A 0.155 0.155 0 0 1 38.023 7.66 Q 37.98 7.676 37.92 7.676 L 37.188 7.676 A 0.475 0.475 0 0 1 37.115 7.67 A 0.357 0.357 0 0 1 37.048 7.654 Q 36.987 7.632 36.934 7.568 L 36.631 7.178 L 36.597 7.178 A 1.27 1.27 0 0 1 35.994 7.651 A 2.115 2.115 0 0 1 35.532 7.77 A 2.861 2.861 0 0 1 35.122 7.798 A 2.072 2.072 0 0 1 34.644 7.746 A 1.41 1.41 0 0 1 33.982 7.395 Q 33.56 6.992 33.56 6.284 A 1.756 1.756 0 0 1 33.641 5.744 A 1.63 1.63 0 0 1 33.694 5.603 A 1.207 1.207 0 0 1 33.938 5.24 A 1.649 1.649 0 0 1 34.163 5.046 Q 34.497 4.805 35.1 4.658 A 5.032 5.032 0 0 1 35.588 4.567 Q 35.846 4.531 36.147 4.51 A 11.577 11.577 0 0 1 36.641 4.487 Q 36.641 4.218 36.559 4.04 A 0.567 0.567 0 0 0 36.418 3.848 A 0.698 0.698 0 0 0 36.182 3.714 Q 36.078 3.678 35.95 3.663 A 1.691 1.691 0 0 0 35.752 3.652 A 1.925 1.925 0 0 0 35.483 3.67 Q 35.344 3.69 35.228 3.731 A 0.958 0.958 0 0 0 35.098 3.789 A 10.419 10.419 0 0 0 35.009 3.837 Q 34.875 3.911 34.813 3.952 A 0.542 0.542 0 0 0 34.78 3.975 Q 34.714 4.031 34.622 4.02 A 0.279 0.279 0 0 1 34.614 4.019 A 1.537 1.537 0 0 1 34.461 3.987 A 1.961 1.961 0 0 1 34.334 3.95 A 7.824 7.824 0 0 1 34.179 3.898 A 9.812 9.812 0 0 1 34.014 3.838 Q 33.989 3.828 33.96 3.806 A 0.082 0.082 0 0 1 33.931 3.764 A 0.122 0.122 0 0 1 33.926 3.74 A 0.316 0.316 0 0 1 33.926 3.721 Q 33.927 3.712 33.928 3.701 A 0.713 0.713 0 0 1 33.931 3.679 A 0.723 0.723 0 0 1 33.934 3.659 Q 33.939 3.629 33.949 3.578 A 6.957 6.957 0 0 1 33.955 3.545 A 2.545 2.545 0 0 1 33.972 3.469 Q 33.98 3.432 33.991 3.391 A 5.625 5.625 0 0 1 34.014 3.303 A 3.002 3.002 0 0 1 34.033 3.235 Q 34.061 3.14 34.087 3.081 A 0.37 0.37 0 0 1 34.141 3.005 Q 34.169 2.974 34.207 2.945 A 0.707 0.707 0 0 1 34.233 2.925 Q 34.3 2.87 34.586 2.761 A 8.707 8.707 0 0 1 34.736 2.705 Q 35.116 2.568 35.802 2.555 A 7.81 7.81 0 0 1 35.952 2.554 A 3.256 3.256 0 0 1 36.806 2.656 Q 37.784 2.922 38.047 3.883 A 3.046 3.046 0 0 1 38.145 4.688 Z M 14.614 6.484 L 14.971 7.29 A 0.257 0.257 0 0 1 14.981 7.32 Q 15.005 7.404 14.944 7.451 A 0.179 0.179 0 0 1 14.912 7.471 Q 14.775 7.541 14.502 7.626 A 7.566 7.566 0 0 1 14.316 7.681 A 2.795 2.795 0 0 1 13.948 7.756 Q 13.654 7.798 13.291 7.798 Q 12.065 7.798 11.333 7.146 A 2.063 2.063 0 0 1 10.731 6.176 Q 10.629 5.838 10.607 5.43 A 4.301 4.301 0 0 1 10.601 5.195 A 3.417 3.417 0 0 1 10.665 4.516 A 2.481 2.481 0 0 1 10.938 3.774 A 2.247 2.247 0 0 1 11.895 2.869 Q 12.515 2.554 13.359 2.554 A 5.734 5.734 0 0 1 13.63 2.56 Q 13.901 2.573 14.079 2.613 A 1.065 1.065 0 0 1 14.204 2.649 A 4.518 4.518 0 0 1 14.31 2.689 Q 14.454 2.745 14.515 2.783 A 0.252 0.252 0 0 1 14.536 2.798 Q 14.644 2.866 14.702 2.974 Q 14.736 3.027 14.78 3.159 A 1.404 1.404 0 0 1 14.827 3.343 A 1.699 1.699 0 0 1 14.844 3.447 A 0.897 0.897 0 0 1 14.851 3.488 Q 14.863 3.568 14.852 3.611 A 0.103 0.103 0 0 1 14.849 3.621 A 0.128 0.128 0 0 1 14.831 3.651 Q 14.801 3.692 14.727 3.745 A 1.641 1.641 0 0 1 14.513 3.865 A 1.849 1.849 0 0 1 14.47 3.884 Q 14.337 3.943 14.251 3.967 A 0.805 0.805 0 0 1 14.243 3.97 A 0.496 0.496 0 0 1 14.214 3.977 Q 14.162 3.987 14.131 3.979 Q 14.099 3.972 14.047 3.937 A 0.819 0.819 0 0 1 14.023 3.921 Q 13.945 3.867 13.804 3.801 Q 13.707 3.756 13.562 3.742 A 1.52 1.52 0 0 0 13.414 3.735 A 1.238 1.238 0 0 0 12.81 3.892 A 1.153 1.153 0 0 0 12.417 4.249 A 1.425 1.425 0 0 0 12.346 4.36 A 1.28 1.28 0 0 0 12.213 4.712 Q 12.177 4.869 12.17 5.052 A 2.349 2.349 0 0 0 12.168 5.142 A 2.16 2.16 0 0 0 12.208 5.569 Q 12.26 5.827 12.38 6.026 A 1.177 1.177 0 0 0 12.537 6.23 A 1.225 1.225 0 0 0 13.249 6.595 A 1.74 1.74 0 0 0 13.525 6.616 A 2.526 2.526 0 0 0 13.744 6.607 Q 13.848 6.598 13.938 6.58 A 1.179 1.179 0 0 0 14.053 6.55 A 2.816 2.816 0 0 0 14.175 6.509 Q 14.301 6.463 14.385 6.416 A 0.419 0.419 0 0 1 14.42 6.399 Q 14.48 6.373 14.519 6.383 A 0.075 0.075 0 0 1 14.534 6.389 Q 14.585 6.416 14.614 6.484 Z M 39.81 6.104 L 39.81 3.813 L 39.258 3.813 A 0.551 0.551 0 0 1 39.188 3.809 Q 39.113 3.8 39.072 3.768 A 0.134 0.134 0 0 1 39.055 3.752 Q 39.004 3.697 38.999 3.57 A 0.707 0.707 0 0 1 38.999 3.545 L 38.999 2.944 A 0.602 0.602 0 0 1 39.003 2.873 Q 39.014 2.782 39.055 2.737 A 0.156 0.156 0 0 1 39.11 2.7 Q 39.159 2.679 39.233 2.676 A 0.649 0.649 0 0 1 39.258 2.676 L 39.81 2.676 L 39.81 1.89 A 0.453 0.453 0 0 1 39.814 1.822 Q 39.82 1.786 39.831 1.757 A 0.201 0.201 0 0 1 39.858 1.709 A 2.342 2.342 0 0 1 40.039 1.501 Q 40.136 1.401 40.257 1.296 A 5.249 5.249 0 0 1 40.459 1.128 A 0.362 0.362 0 0 1 40.499 1.103 Q 40.544 1.079 40.581 1.079 Q 40.635 1.079 40.689 1.12 A 0.295 0.295 0 0 1 40.698 1.128 A 4.829 4.829 0 0 1 40.869 1.265 Q 40.946 1.33 41.01 1.39 A 2.692 2.692 0 0 1 41.052 1.431 A 2.777 2.777 0 0 1 41.199 1.586 A 2.16 2.16 0 0 1 41.299 1.709 Q 41.337 1.759 41.345 1.841 A 0.483 0.483 0 0 1 41.348 1.89 L 41.348 2.676 L 42.212 2.676 A 0.551 0.551 0 0 1 42.281 2.68 Q 42.357 2.689 42.398 2.722 A 0.134 0.134 0 0 1 42.415 2.737 Q 42.466 2.793 42.47 2.919 A 0.707 0.707 0 0 1 42.471 2.944 L 42.471 3.545 A 0.602 0.602 0 0 1 42.467 3.617 Q 42.456 3.708 42.415 3.752 A 0.156 0.156 0 0 1 42.36 3.79 Q 42.311 3.81 42.236 3.813 A 0.649 0.649 0 0 1 42.212 3.813 L 41.348 3.813 L 41.348 5.835 A 1.587 1.587 0 0 0 41.37 6.115 Q 41.458 6.602 41.889 6.616 A 0.794 0.794 0 0 0 41.914 6.616 A 0.787 0.787 0 0 0 42.008 6.611 A 0.623 0.623 0 0 0 42.075 6.599 A 1.407 1.407 0 0 0 42.136 6.584 Q 42.163 6.576 42.187 6.568 A 0.776 0.776 0 0 0 42.202 6.562 A 0.816 0.816 0 0 1 42.241 6.549 Q 42.305 6.528 42.338 6.532 A 0.069 0.069 0 0 1 42.346 6.533 A 0.055 0.055 0 0 1 42.371 6.548 Q 42.397 6.572 42.42 6.635 A 0.58 0.58 0 0 1 42.422 6.641 L 42.705 7.397 A 0.25 0.25 0 0 1 42.714 7.426 Q 42.733 7.509 42.674 7.555 A 0.173 0.173 0 0 1 42.646 7.573 A 0.776 0.776 0 0 1 42.612 7.588 Q 42.521 7.625 42.292 7.703 A 1.366 1.366 0 0 1 42.1 7.751 Q 41.9 7.787 41.612 7.796 A 6.069 6.069 0 0 1 41.44 7.798 Q 39.81 7.798 39.81 6.104 Z M 23.022 7.31 L 22.002 7.778 Q 21.904 7.82 21.86 7.822 A 0.096 0.096 0 0 1 21.855 7.822 Q 21.818 7.822 21.777 7.797 A 0.259 0.259 0 0 1 21.763 7.788 A 0.348 0.348 0 0 1 21.701 7.731 Q 21.614 7.632 21.511 7.414 A 3.271 3.271 0 0 1 21.506 7.405 Q 21.362 7.1 21.362 6.465 L 21.362 0.811 A 0.453 0.453 0 0 1 21.367 0.743 Q 21.372 0.707 21.384 0.678 A 0.201 0.201 0 0 1 21.411 0.63 A 2.342 2.342 0 0 1 21.592 0.422 Q 21.689 0.322 21.81 0.216 A 5.249 5.249 0 0 1 22.012 0.049 A 0.362 0.362 0 0 1 22.052 0.024 Q 22.096 0 22.134 0 A 0.172 0.172 0 0 1 22.217 0.022 A 0.242 0.242 0 0 1 22.256 0.049 A 4.829 4.829 0 0 1 22.427 0.186 Q 22.503 0.25 22.568 0.311 A 2.692 2.692 0 0 1 22.61 0.352 A 2.777 2.777 0 0 1 22.757 0.507 A 2.16 2.16 0 0 1 22.856 0.63 Q 22.895 0.679 22.903 0.762 A 0.483 0.483 0 0 1 22.905 0.811 L 22.905 6.167 A 3.263 3.263 0 0 0 22.913 6.395 Q 22.921 6.507 22.937 6.605 A 1.655 1.655 0 0 0 22.959 6.716 Q 23.013 6.943 23.086 7.08 A 0.336 0.336 0 0 1 23.103 7.118 Q 23.151 7.25 23.022 7.31 Z M 31.382 3.242 L 31.382 3.604 L 31.401 3.604 Q 31.768 2.588 32.72 2.588 Q 32.802 2.588 32.864 2.593 A 0.851 0.851 0 0 1 32.92 2.6 Q 32.998 2.612 33.027 2.622 A 0.108 0.108 0 0 1 33.07 2.647 Q 33.09 2.667 33.097 2.698 A 0.166 0.166 0 0 1 33.101 2.734 L 33.101 3.911 Q 33.101 4.058 32.935 3.998 A 0.476 0.476 0 0 1 32.925 3.994 A 0.643 0.643 0 0 0 32.884 3.979 Q 32.832 3.961 32.756 3.943 Q 32.657 3.919 32.488 3.916 A 2.667 2.667 0 0 0 32.451 3.916 A 1.097 1.097 0 0 0 32.095 3.971 A 0.901 0.901 0 0 0 31.665 4.285 Q 31.382 4.653 31.382 5.288 L 31.382 7.417 A 0.551 0.551 0 0 1 31.378 7.487 Q 31.368 7.562 31.336 7.603 A 0.134 0.134 0 0 1 31.321 7.62 Q 31.265 7.671 31.138 7.675 A 0.707 0.707 0 0 1 31.113 7.676 L 30.107 7.676 A 0.602 0.602 0 0 1 30.036 7.672 Q 29.945 7.661 29.9 7.62 A 0.156 0.156 0 0 1 29.863 7.565 Q 29.842 7.516 29.839 7.441 A 0.649 0.649 0 0 1 29.839 7.417 L 29.839 3.325 A 0.453 0.453 0 0 1 29.844 3.257 Q 29.849 3.222 29.861 3.193 A 0.201 0.201 0 0 1 29.888 3.145 A 2.225 2.225 0 0 1 30.016 2.989 A 2.859 2.859 0 0 1 30.134 2.866 Q 30.258 2.745 30.431 2.608 A 5.401 5.401 0 0 1 30.488 2.563 A 0.259 0.259 0 0 1 30.525 2.54 A 0.192 0.192 0 0 1 30.566 2.524 A 0.386 0.386 0 0 1 30.594 2.518 Q 30.609 2.516 30.622 2.515 A 0.196 0.196 0 0 1 30.635 2.515 A 0.207 0.207 0 0 1 30.718 2.533 A 0.294 0.294 0 0 1 30.771 2.563 Q 31.177 2.881 31.338 3.105 A 0.22 0.22 0 0 1 31.382 3.234 A 0.272 0.272 0 0 1 31.382 3.242 Z M 17.017 4.644 L 18.608 4.644 Q 18.82 4.644 18.852 4.478 A 0.339 0.339 0 0 0 18.857 4.414 A 0.913 0.913 0 0 0 18.807 4.106 A 0.801 0.801 0 0 0 18.64 3.831 A 0.685 0.685 0 0 0 18.332 3.641 Q 18.182 3.594 17.988 3.594 A 1.167 1.167 0 0 0 17.718 3.623 Q 17.527 3.669 17.394 3.785 A 0.696 0.696 0 0 0 17.292 3.896 A 1.407 1.407 0 0 0 17.081 4.33 A 1.883 1.883 0 0 0 17.017 4.644 Z M 25.493 4.644 L 27.085 4.644 Q 27.297 4.644 27.328 4.478 A 0.339 0.339 0 0 0 27.334 4.414 A 0.913 0.913 0 0 0 27.284 4.106 A 0.801 0.801 0 0 0 27.117 3.831 A 0.685 0.685 0 0 0 26.809 3.641 Q 26.658 3.594 26.465 3.594 A 1.167 1.167 0 0 0 26.195 3.623 Q 26.003 3.669 25.871 3.785 A 0.696 0.696 0 0 0 25.769 3.896 A 1.407 1.407 0 0 0 25.557 4.33 A 1.883 1.883 0 0 0 25.493 4.644 Z M 44.771 4.644 L 46.362 4.644 Q 46.574 4.644 46.606 4.478 A 0.339 0.339 0 0 0 46.611 4.414 A 0.913 0.913 0 0 0 46.561 4.106 A 0.801 0.801 0 0 0 46.394 3.831 A 0.685 0.685 0 0 0 46.086 3.641 Q 45.936 3.594 45.742 3.594 A 1.167 1.167 0 0 0 45.472 3.623 Q 45.281 3.669 45.148 3.785 A 0.696 0.696 0 0 0 45.046 3.896 A 1.407 1.407 0 0 0 44.834 4.33 A 1.883 1.883 0 0 0 44.771 4.644 Z M 36.631 5.962 L 36.631 5.42 A 7.049 7.049 0 0 0 36.276 5.428 Q 35.955 5.444 35.737 5.493 A 1.543 1.543 0 0 0 35.613 5.525 A 1.563 1.563 0 0 0 35.444 5.587 Q 35.273 5.663 35.188 5.762 A 0.39 0.39 0 0 0 35.161 5.798 A 0.643 0.643 0 0 0 35.049 6.162 Q 35.049 6.34 35.118 6.449 A 0.334 0.334 0 0 0 35.225 6.555 A 0.696 0.696 0 0 0 35.449 6.644 Q 35.54 6.664 35.645 6.665 A 1.205 1.205 0 0 0 35.659 6.665 A 1.402 1.402 0 0 0 35.918 6.643 Q 36.064 6.615 36.177 6.555 A 0.683 0.683 0 0 0 36.338 6.436 A 1.365 1.365 0 0 0 36.492 6.254 Q 36.572 6.14 36.613 6.022 A 0.792 0.792 0 0 0 36.631 5.962 Z" vector-effect="non-scaling-stroke"/></g></svg>