<svg width="59.028" height="9.102" viewBox="0 0 59.028 9.102" xmlns="http://www.w3.org/2000/svg"><g id="svgGroup" stroke-linecap="round" fill-rule="evenodd" font-size="9pt" stroke="#000000" stroke-width="0.25mm" fill="#ffffff" style="stroke:#000000;stroke-width:0.25mm;fill:#ffffff"><path d="M 0 6.675 L 0.996 5.664 A 2.328 2.328 0 0 0 1.372 6.287 Q 1.611 6.572 1.897 6.777 Q 2.183 6.982 2.49 7.1 A 1.902 1.902 0 0 0 2.78 7.186 A 1.431 1.431 0 0 0 3.071 7.217 A 3.98 3.98 0 0 0 3.477 7.197 A 3.347 3.347 0 0 0 3.677 7.17 A 1.956 1.956 0 0 0 3.934 7.111 A 1.451 1.451 0 0 0 4.17 7.017 A 0.916 0.916 0 0 0 4.387 6.864 A 0.802 0.802 0 0 0 4.5 6.731 A 0.681 0.681 0 0 0 4.598 6.495 Q 4.619 6.397 4.619 6.284 A 0.758 0.758 0 0 0 4.6 6.111 A 0.577 0.577 0 0 0 4.526 5.933 Q 4.434 5.786 4.285 5.681 A 1.474 1.474 0 0 0 4.06 5.552 A 1.758 1.758 0 0 0 3.945 5.503 A 3.591 3.591 0 0 0 3.557 5.378 A 10.216 10.216 0 0 0 3.169 5.286 Q 3.005 5.25 2.874 5.213 A 3.306 3.306 0 0 1 2.832 5.2 A 39.923 39.923 0 0 1 2.386 5.069 A 45.389 45.389 0 0 1 2.231 5.022 Q 1.919 4.927 1.616 4.805 Q 1.313 4.683 1.042 4.524 Q 0.771 4.365 0.566 4.148 Q 0.361 3.931 0.239 3.645 A 1.488 1.488 0 0 1 0.137 3.276 A 1.97 1.97 0 0 1 0.117 2.988 A 3.073 3.073 0 0 1 0.141 2.594 A 2.242 2.242 0 0 1 0.227 2.2 Q 0.337 1.855 0.537 1.602 Q 0.737 1.348 1.011 1.174 Q 1.284 1.001 1.611 0.896 A 3.759 3.759 0 0 1 2.17 0.764 A 4.252 4.252 0 0 1 2.307 0.745 A 6.038 6.038 0 0 1 3.062 0.698 A 4.935 4.935 0 0 1 3.595 0.726 A 3.795 3.795 0 0 1 4.021 0.796 A 3.694 3.694 0 0 1 4.632 0.989 A 3.291 3.291 0 0 1 4.819 1.074 A 3.455 3.455 0 0 1 5.491 1.506 A 4.886 4.886 0 0 1 6.064 2.065 L 5.068 3.076 A 2.297 2.297 0 0 0 4.757 2.459 A 2.174 2.174 0 0 0 4.744 2.441 Q 4.536 2.158 4.282 1.956 A 2.138 2.138 0 0 0 3.888 1.704 A 1.912 1.912 0 0 0 3.75 1.643 A 1.628 1.628 0 0 0 3.46 1.557 A 1.306 1.306 0 0 0 3.213 1.533 A 4.275 4.275 0 0 0 2.851 1.548 A 3.359 3.359 0 0 0 2.593 1.58 A 1.971 1.971 0 0 0 2.353 1.634 Q 2.218 1.674 2.107 1.731 A 0.838 0.838 0 0 0 1.891 1.888 A 0.755 0.755 0 0 0 1.792 2.014 A 0.702 0.702 0 0 0 1.701 2.242 Q 1.68 2.341 1.68 2.456 A 0.889 0.889 0 0 0 1.693 2.616 Q 1.712 2.715 1.754 2.796 A 0.552 0.552 0 0 0 1.763 2.813 A 0.791 0.791 0 0 0 1.985 3.062 A 1.262 1.262 0 0 0 2.235 3.204 A 1.449 1.449 0 0 0 2.3 3.23 A 3.645 3.645 0 0 0 2.664 3.345 Q 2.852 3.394 3.035 3.43 A 4.607 4.607 0 0 1 3.21 3.469 A 3.573 3.573 0 0 1 3.369 3.511 A 141.754 141.754 0 0 1 3.669 3.596 A 163.82 163.82 0 0 1 3.984 3.687 Q 4.307 3.779 4.619 3.904 Q 4.932 4.028 5.215 4.189 A 2.205 2.205 0 0 1 5.71 4.569 A 2.062 2.062 0 0 1 5.713 4.573 Q 5.928 4.795 6.055 5.085 A 1.493 1.493 0 0 1 6.162 5.471 A 1.959 1.959 0 0 1 6.182 5.752 A 3.052 3.052 0 0 1 6.157 6.151 Q 6.129 6.36 6.071 6.541 A 1.882 1.882 0 0 1 6.067 6.553 A 1.986 1.986 0 0 1 5.887 6.95 A 1.701 1.701 0 0 1 5.745 7.153 Q 5.537 7.407 5.254 7.578 A 2.742 2.742 0 0 1 4.657 7.845 A 3.033 3.033 0 0 1 4.636 7.852 A 3.951 3.951 0 0 1 4.027 7.985 A 4.433 4.433 0 0 1 3.928 7.998 Q 3.555 8.042 3.169 8.042 A 5.985 5.985 0 0 1 2.622 8.018 A 4.764 4.764 0 0 1 2.231 7.966 A 3.623 3.623 0 0 1 1.471 7.747 A 3.372 3.372 0 0 1 1.423 7.727 A 3.657 3.657 0 0 1 0.696 7.305 A 4.72 4.72 0 0 1 0.282 6.958 A 5.97 5.97 0 0 1 0 6.675 Z M 21.206 9.102 L 20.586 8.765 Q 20.718 8.521 20.835 8.218 A 6.853 6.853 0 0 0 20.998 7.743 A 7.757 7.757 0 0 0 21.047 7.576 Q 21.143 7.236 21.218 6.875 A 11.598 11.598 0 0 0 21.345 6.16 A 11.015 11.015 0 0 0 21.416 5.555 A 10.015 10.015 0 0 0 21.423 5.471 A 8.628 8.628 0 0 0 21.445 5.11 A 6.86 6.86 0 0 0 21.45 4.849 A 5.638 5.638 0 0 0 21.444 4.6 A 6.887 6.887 0 0 0 21.436 4.441 Q 21.421 4.224 21.375 4.006 A 2.693 2.693 0 0 0 21.25 3.589 Q 21.172 3.389 21.042 3.237 Q 20.913 3.086 20.73 2.993 A 0.838 0.838 0 0 0 20.493 2.916 A 1.142 1.142 0 0 0 20.298 2.9 A 0.925 0.925 0 0 0 20.042 2.935 A 0.793 0.793 0 0 0 19.863 3.01 A 1.23 1.23 0 0 0 19.526 3.298 A 1.795 1.795 0 0 0 19.323 3.608 A 2.078 2.078 0 0 0 19.275 3.706 Q 19.17 3.936 19.104 4.177 A 3.441 3.441 0 0 0 19.013 4.624 A 3.16 3.16 0 0 0 19.009 4.653 A 4.181 4.181 0 0 0 18.989 4.849 Q 18.979 4.969 18.979 5.073 L 18.979 7.9 L 17.324 7.9 L 17.324 2.261 L 17.959 2.261 L 18.716 3.574 A 2.677 2.677 0 0 1 19.058 2.979 A 2.293 2.293 0 0 1 19.521 2.52 Q 19.78 2.329 20.095 2.227 Q 20.41 2.124 20.776 2.124 Q 21.352 2.124 21.782 2.308 A 1.922 1.922 0 0 1 21.797 2.314 A 2.011 2.011 0 0 1 22.376 2.693 A 1.887 1.887 0 0 1 22.52 2.844 A 2.168 2.168 0 0 1 22.891 3.48 A 2.568 2.568 0 0 1 22.949 3.65 A 3.291 3.291 0 0 1 23.077 4.331 A 4.007 4.007 0 0 1 23.091 4.668 Q 23.091 5.239 22.952 5.859 A 7.28 7.28 0 0 1 22.563 7.075 A 6.756 6.756 0 0 1 21.968 8.196 A 5.132 5.132 0 0 1 21.483 8.823 A 4.363 4.363 0 0 1 21.206 9.102 Z M 53.818 7.012 L 54.78 6.226 A 1.708 1.708 0 0 0 55.126 6.674 A 1.924 1.924 0 0 0 55.129 6.677 A 3.036 3.036 0 0 0 55.494 6.969 A 2.74 2.74 0 0 0 55.581 7.026 A 2.646 2.646 0 0 0 55.826 7.163 A 2.049 2.049 0 0 0 56.035 7.251 A 1.922 1.922 0 0 0 56.161 7.291 Q 56.282 7.325 56.371 7.329 A 0.511 0.511 0 0 0 56.392 7.329 A 4.114 4.114 0 0 0 56.503 7.328 Q 56.57 7.326 56.646 7.322 A 2.979 2.979 0 0 0 56.934 7.292 A 1.943 1.943 0 0 0 57.222 7.227 Q 57.363 7.183 57.473 7.107 Q 57.583 7.031 57.649 6.917 Q 57.715 6.802 57.715 6.641 A 0.545 0.545 0 0 0 57.691 6.476 A 0.472 0.472 0 0 0 57.629 6.35 A 0.81 0.81 0 0 0 57.457 6.169 A 0.953 0.953 0 0 0 57.407 6.133 A 1.321 1.321 0 0 0 57.203 6.02 A 1.599 1.599 0 0 0 57.095 5.977 A 4.693 4.693 0 0 0 56.741 5.864 A 7.285 7.285 0 0 0 56.48 5.798 A 6.426 6.426 0 0 0 56.396 5.779 A 7.04 7.04 0 0 1 56.278 5.752 Q 56.22 5.738 56.168 5.724 A 3.802 3.802 0 0 1 56.108 5.708 A 27.417 27.417 0 0 0 55.878 5.644 A 31.786 31.786 0 0 0 55.635 5.579 Q 55.386 5.513 55.142 5.427 Q 54.897 5.342 54.675 5.225 A 1.711 1.711 0 0 1 54.339 4.994 A 1.571 1.571 0 0 1 54.285 4.944 Q 54.116 4.78 54.016 4.558 A 1.101 1.101 0 0 1 53.935 4.284 A 1.508 1.508 0 0 1 53.916 4.038 Q 53.916 3.491 54.133 3.123 Q 54.351 2.754 54.707 2.532 A 2.361 2.361 0 0 1 55.324 2.264 A 2.799 2.799 0 0 1 55.518 2.217 Q 55.972 2.124 56.44 2.124 A 3.535 3.535 0 0 1 56.899 2.155 A 4.229 4.229 0 0 1 57.119 2.19 A 3.916 3.916 0 0 1 57.813 2.385 Q 58.149 2.515 58.442 2.7 A 2.155 2.155 0 0 1 58.77 2.952 A 1.819 1.819 0 0 1 58.931 3.125 L 57.969 3.916 A 1.87 1.87 0 0 0 57.827 3.613 A 1.525 1.525 0 0 0 57.688 3.413 A 1.844 1.844 0 0 0 57.46 3.18 A 1.561 1.561 0 0 0 57.312 3.069 A 1.626 1.626 0 0 0 57.022 2.915 A 1.428 1.428 0 0 0 56.897 2.871 A 1.631 1.631 0 0 0 56.705 2.826 A 1.195 1.195 0 0 0 56.504 2.808 Q 56.334 2.808 56.123 2.821 A 8.22 8.22 0 0 0 56.108 2.822 A 1.568 1.568 0 0 0 55.772 2.881 A 1.422 1.422 0 0 0 55.696 2.905 A 0.847 0.847 0 0 0 55.421 3.063 A 0.81 0.81 0 0 0 55.369 3.113 Q 55.238 3.249 55.234 3.485 A 0.876 0.876 0 0 0 55.234 3.496 A 0.64 0.64 0 0 0 55.25 3.642 A 0.484 0.484 0 0 0 55.315 3.796 A 0.75 0.75 0 0 0 55.495 3.988 A 0.87 0.87 0 0 0 55.527 4.011 Q 55.659 4.102 55.828 4.163 Q 55.996 4.224 56.172 4.27 Q 56.348 4.316 56.514 4.351 A 4.247 4.247 0 0 1 56.671 4.386 A 3.105 3.105 0 0 1 56.812 4.424 A 23.919 23.919 0 0 0 57.043 4.488 A 28.11 28.11 0 0 0 57.288 4.553 Q 57.539 4.619 57.783 4.705 Q 58.027 4.79 58.254 4.905 A 1.63 1.63 0 0 1 58.598 5.135 A 1.504 1.504 0 0 1 58.652 5.186 A 1.289 1.289 0 0 1 58.926 5.574 A 1.076 1.076 0 0 1 59.007 5.841 Q 59.028 5.96 59.028 6.094 A 1.762 1.762 0 0 1 59.028 6.099 A 2.189 2.189 0 0 1 59.003 6.439 A 1.641 1.641 0 0 1 58.921 6.758 A 1.669 1.669 0 0 1 58.731 7.126 A 1.486 1.486 0 0 1 58.628 7.258 Q 58.442 7.471 58.188 7.615 Q 57.935 7.759 57.644 7.847 A 3.625 3.625 0 0 1 57.036 7.974 A 5.152 5.152 0 0 1 56.406 8.013 Q 55.986 8.013 55.664 7.959 Q 55.342 7.905 55.049 7.786 A 3.316 3.316 0 0 1 54.611 7.566 A 3.833 3.833 0 0 1 54.465 7.476 A 8.716 8.716 0 0 1 54.199 7.293 Q 54.064 7.197 53.917 7.087 A 14.935 14.935 0 0 1 53.818 7.012 Z M 44.941 2.261 L 46.147 2.261 A 9.096 9.096 0 0 0 45.942 2.975 A 9.946 9.946 0 0 0 45.93 3.025 Q 45.835 3.423 45.769 3.821 A 11.507 11.507 0 0 0 45.667 4.6 A 8.229 8.229 0 0 0 45.637 5.011 A 6.502 6.502 0 0 0 45.63 5.308 A 4.834 4.834 0 0 0 45.637 5.556 A 5.913 5.913 0 0 0 45.647 5.715 A 3.624 3.624 0 0 0 45.708 6.15 A 2.379 2.379 0 0 0 45.833 6.567 A 1.374 1.374 0 0 0 45.979 6.842 A 1.236 1.236 0 0 0 46.04 6.921 A 0.931 0.931 0 0 0 46.35 7.166 A 0.852 0.852 0 0 0 46.584 7.24 A 1.168 1.168 0 0 0 46.782 7.256 A 0.93 0.93 0 0 0 47.047 7.219 A 0.812 0.812 0 0 0 47.219 7.146 A 1.216 1.216 0 0 0 47.559 6.858 A 1.74 1.74 0 0 0 47.768 6.534 A 2.006 2.006 0 0 0 47.808 6.45 A 3.249 3.249 0 0 0 47.976 5.979 A 3.762 3.762 0 0 0 48.065 5.564 A 3.408 3.408 0 0 0 48.074 5.505 A 3.734 3.734 0 0 0 48.097 5.298 Q 48.104 5.2 48.105 5.113 A 2.223 2.223 0 0 0 48.105 5.088 L 48.105 2.261 L 49.756 2.261 L 49.756 7.9 L 49.121 7.9 L 48.364 6.587 A 2.862 2.862 0 0 1 48.07 7.113 A 2.634 2.634 0 0 1 48.02 7.18 Q 47.817 7.446 47.559 7.637 Q 47.3 7.827 46.985 7.93 Q 46.67 8.032 46.304 8.032 Q 45.728 8.032 45.299 7.848 A 1.922 1.922 0 0 1 45.283 7.842 A 2.035 2.035 0 0 1 44.724 7.483 A 1.888 1.888 0 0 1 44.561 7.314 A 2.14 2.14 0 0 1 44.19 6.685 A 2.552 2.552 0 0 1 44.131 6.511 Q 43.989 6.045 43.989 5.488 A 4.973 4.973 0 0 1 44.031 4.855 A 5.675 5.675 0 0 1 44.055 4.688 A 6.357 6.357 0 0 1 44.246 3.857 A 7.415 7.415 0 0 1 44.546 3.037 Q 44.722 2.632 44.941 2.261 Z M 26.245 2.915 L 26.245 7.9 L 24.59 7.9 L 24.59 2.915 L 23.564 2.915 L 23.564 2.261 L 24.59 2.261 L 24.59 0.186 L 26.245 0.186 L 26.245 2.261 L 27.954 2.261 L 27.954 2.915 L 26.245 2.915 Z M 36.709 7.007 L 36.709 7.9 L 31.66 7.9 L 31.66 0.869 L 33.599 0.869 L 33.599 7.007 L 36.709 7.007 Z M 12.905 2.261 L 12.905 7.9 L 11.255 7.9 L 11.255 7.227 Q 10.962 7.627 10.549 7.82 A 2.076 2.076 0 0 1 9.769 8.01 A 2.446 2.446 0 0 1 9.644 8.013 Q 8.999 8.013 8.491 7.783 Q 7.983 7.554 7.632 7.156 A 2.722 2.722 0 0 1 7.131 6.32 A 3.132 3.132 0 0 1 7.095 6.221 A 3.436 3.436 0 0 1 6.914 5.259 A 3.964 3.964 0 0 1 6.909 5.068 A 3.612 3.612 0 0 1 7.013 4.191 A 3.254 3.254 0 0 1 7.095 3.916 A 2.813 2.813 0 0 1 7.486 3.162 A 2.604 2.604 0 0 1 7.632 2.981 Q 7.983 2.583 8.491 2.354 A 2.567 2.567 0 0 1 9.217 2.151 A 3.261 3.261 0 0 1 9.644 2.124 Q 9.971 2.124 10.266 2.222 Q 10.562 2.319 10.808 2.498 A 2.014 2.014 0 0 1 11.243 2.927 A 2.063 2.063 0 0 1 11.538 3.486 L 12.271 2.261 L 12.905 2.261 Z M 43.177 5.672 A 2.931 2.931 0 0 0 43.237 5.068 A 3.161 3.161 0 0 0 43.235 4.96 A 2.793 2.793 0 0 0 43.12 4.246 A 2.884 2.884 0 0 0 42.795 3.53 A 2.781 2.781 0 0 0 42.295 2.942 A 3.106 3.106 0 0 0 41.653 2.5 A 3.363 3.363 0 0 0 40.906 2.222 A 3.419 3.419 0 0 0 40.088 2.124 Q 39.668 2.124 39.272 2.222 Q 38.877 2.319 38.528 2.5 Q 38.179 2.681 37.886 2.942 A 2.781 2.781 0 0 0 37.385 3.53 A 2.884 2.884 0 0 0 37.061 4.246 A 2.642 2.642 0 0 0 37.021 4.393 A 2.887 2.887 0 0 0 36.943 5.068 A 3.161 3.161 0 0 0 36.945 5.176 A 2.793 2.793 0 0 0 37.061 5.891 A 2.884 2.884 0 0 0 37.385 6.606 A 2.781 2.781 0 0 0 37.886 7.195 A 3.106 3.106 0 0 0 38.528 7.637 Q 38.877 7.817 39.272 7.915 Q 39.668 8.013 40.088 8.013 A 3.419 3.419 0 0 0 40.906 7.915 A 3.363 3.363 0 0 0 41.653 7.637 Q 42.002 7.456 42.295 7.195 A 2.781 2.781 0 0 0 42.795 6.606 A 2.894 2.894 0 0 0 43.12 5.894 A 2.6 2.6 0 0 0 43.177 5.672 Z M 15.942 2.266 L 15.942 7.9 L 14.287 7.9 L 14.287 2.266 L 15.942 2.266 Z M 52.793 2.266 L 52.793 7.9 L 51.138 7.9 L 51.138 2.266 L 52.793 2.266 Z M 41.558 5.068 A 4.603 4.603 0 0 0 41.545 4.733 A 5.459 5.459 0 0 0 41.531 4.573 Q 41.504 4.312 41.44 4.06 Q 41.377 3.809 41.267 3.577 A 1.639 1.639 0 0 0 41.073 3.262 A 1.469 1.469 0 0 0 40.996 3.171 A 1.233 1.233 0 0 0 40.61 2.893 A 1.093 1.093 0 0 0 40.318 2.805 A 1.463 1.463 0 0 0 40.088 2.788 A 1.278 1.278 0 0 0 39.821 2.815 A 1.018 1.018 0 0 0 39.585 2.896 A 1.276 1.276 0 0 0 39.202 3.181 A 1.609 1.609 0 0 0 38.949 3.55 A 1.821 1.821 0 0 0 38.928 3.594 A 2.991 2.991 0 0 0 38.75 4.08 A 3.409 3.409 0 0 0 38.652 4.587 A 4.608 4.608 0 0 0 38.628 4.888 A 3.74 3.74 0 0 0 38.623 5.068 A 3.929 3.929 0 0 0 38.634 5.362 A 4.836 4.836 0 0 0 38.652 5.549 Q 38.682 5.806 38.75 6.06 A 2.883 2.883 0 0 0 38.928 6.545 Q 39.038 6.777 39.202 6.956 A 1.276 1.276 0 0 0 39.585 7.241 A 1.051 1.051 0 0 0 39.909 7.337 A 1.344 1.344 0 0 0 40.088 7.349 Q 40.381 7.349 40.605 7.244 A 1.244 1.244 0 0 0 40.994 6.963 A 1.56 1.56 0 0 0 41.261 6.565 A 1.712 1.712 0 0 0 41.265 6.558 A 2.793 2.793 0 0 0 41.438 6.074 A 3.458 3.458 0 0 0 41.531 5.562 Q 41.558 5.303 41.558 5.068 Z M 11.245 5.068 A 4.925 4.925 0 0 0 11.235 4.755 A 5.802 5.802 0 0 0 11.223 4.605 Q 11.201 4.36 11.147 4.121 Q 11.094 3.882 10.999 3.665 A 1.469 1.469 0 0 0 10.764 3.289 A 1.395 1.395 0 0 0 10.754 3.279 A 1.082 1.082 0 0 0 10.396 3.013 A 1.025 1.025 0 0 0 10.122 2.931 A 1.373 1.373 0 0 0 9.907 2.915 A 1.303 1.303 0 0 0 9.67 2.936 A 0.954 0.954 0 0 0 9.424 3.015 A 1.1 1.1 0 0 0 9.072 3.284 A 1.47 1.47 0 0 0 8.852 3.624 A 1.67 1.67 0 0 0 8.831 3.672 Q 8.735 3.892 8.682 4.131 Q 8.628 4.37 8.606 4.612 A 5.413 5.413 0 0 0 8.587 4.903 A 4.506 4.506 0 0 0 8.584 5.068 A 4.767 4.767 0 0 0 8.593 5.348 A 5.807 5.807 0 0 0 8.606 5.527 Q 8.628 5.772 8.682 6.011 Q 8.735 6.25 8.831 6.47 A 1.518 1.518 0 0 0 9.019 6.793 A 1.389 1.389 0 0 0 9.072 6.858 Q 9.219 7.026 9.424 7.126 A 0.958 0.958 0 0 0 9.678 7.207 A 1.311 1.311 0 0 0 9.907 7.227 A 1.049 1.049 0 0 0 10.161 7.197 A 0.866 0.866 0 0 0 10.359 7.122 Q 10.557 7.017 10.706 6.841 A 1.697 1.697 0 0 0 10.931 6.496 A 1.915 1.915 0 0 0 10.957 6.44 Q 11.06 6.216 11.123 5.977 Q 11.187 5.737 11.216 5.501 A 4.114 4.114 0 0 0 11.238 5.274 A 3.046 3.046 0 0 0 11.245 5.068 Z M 15.945 1.25 A 0.887 0.887 0 0 0 16.016 0.898 Q 16.016 0.713 15.945 0.549 A 0.912 0.912 0 0 0 15.752 0.264 A 0.905 0.905 0 0 0 15.464 0.071 A 0.887 0.887 0 0 0 15.112 0 Q 14.927 0 14.763 0.071 A 0.912 0.912 0 0 0 14.478 0.264 A 0.912 0.912 0 0 0 14.285 0.549 Q 14.214 0.713 14.214 0.898 A 0.887 0.887 0 0 0 14.285 1.25 A 0.905 0.905 0 0 0 14.478 1.538 A 0.912 0.912 0 0 0 14.763 1.731 Q 14.927 1.802 15.112 1.802 A 0.887 0.887 0 0 0 15.464 1.731 A 0.905 0.905 0 0 0 15.752 1.538 A 0.905 0.905 0 0 0 15.945 1.25 Z M 52.795 1.25 A 0.887 0.887 0 0 0 52.866 0.898 Q 52.866 0.713 52.795 0.549 A 0.912 0.912 0 0 0 52.603 0.264 A 0.905 0.905 0 0 0 52.314 0.071 A 0.887 0.887 0 0 0 51.963 0 Q 51.777 0 51.614 0.071 A 0.912 0.912 0 0 0 51.328 0.264 A 0.912 0.912 0 0 0 51.135 0.549 Q 51.064 0.713 51.064 0.898 A 0.887 0.887 0 0 0 51.135 1.25 A 0.905 0.905 0 0 0 51.328 1.538 A 0.912 0.912 0 0 0 51.614 1.731 Q 51.777 1.802 51.963 1.802 A 0.887 0.887 0 0 0 52.314 1.731 A 0.905 0.905 0 0 0 52.603 1.538 A 0.905 0.905 0 0 0 52.795 1.25 Z" vector-effect="non-scaling-stroke"/></g></svg>